<svg data-v-423bf9ae="" xmlns="http://www.w3.org/2000/svg" viewBox="0 0 262.1438901103696 60" class="font"><!----><!----><!----><g data-v-423bf9ae="" id="0c5a2b9c-e9ba-4648-a7d4-1a0f754ba7b6" fill="white" transform="matrix(4.316546881052659,0,0,4.316546881052659,-1.2086298673517604,-16.877699390663828)"><path d="M4.40 13.38C4.40 13.38 3.79 13.79 3.29 13.79C2.77 13.79 2.53 13.40 2.53 12.70L2.53 8.39L4.42 8.39L4.49 7.63L2.53 7.63L2.53 6.19L2.04 6.13C2.04 6.13 1.51 7.25 1.40 7.39C1.08 7.59 0.74 7.64 0.28 7.80L0.32 8.39L1.40 8.39L1.40 12.36C1.40 13.90 1.81 14.69 3.14 14.69C3.84 14.69 4.34 14.31 4.79 13.96ZM8.43 7.50C6.37 7.50 5.38 9.02 5.38 11.12C5.38 13.23 6.48 14.69 8.60 14.69C10.18 14.69 11.07 13.85 11.07 13.85L10.68 13.20C10.68 13.20 9.79 13.78 8.60 13.78C7.34 13.78 6.73 12.49 6.69 11.23L10.88 11.23L11.12 10.77C11.12 8.81 10.39 7.50 8.43 7.50ZM8.37 8.23C9.37 8.23 9.83 9.02 9.83 10.01C9.83 10.08 9.81 10.29 9.81 10.29L6.71 10.53C6.80 9.37 7.22 8.23 8.37 8.23ZM14.45 7.50C13.15 7.50 12.18 8.19 12.18 9.37C12.18 11.63 15.72 11.44 15.72 12.91C15.72 13.65 15.23 13.97 14.45 13.97C14 13.97 13.59 13.89 13.27 13.64C13.16 13.31 13.06 12.95 13.06 12.81L13.06 12.28L12.25 12.24L12.10 14.14C12.10 14.14 13.02 14.69 14.41 14.69C15.93 14.69 16.87 14.11 16.87 12.64C16.87 10.43 13.30 10.57 13.30 9.14C13.30 8.57 13.75 8.23 14.43 8.23C14.83 8.23 15.08 8.27 15.37 8.40C15.47 8.72 15.57 9.06 15.57 9.20L15.57 9.70L16.38 9.74L16.55 7.74C15.88 7.60 15.12 7.50 14.45 7.50ZM21.81 13.38C21.81 13.38 21.21 13.79 20.71 13.79C20.19 13.79 19.95 13.40 19.95 12.70L19.95 8.39L21.84 8.39L21.91 7.63L19.95 7.63L19.95 6.19L19.46 6.13C19.46 6.13 18.93 7.25 18.82 7.39C18.49 7.59 18.16 7.64 17.70 7.80L17.74 8.39L18.82 8.39L18.82 12.36C18.82 13.90 19.22 14.69 20.55 14.69C21.25 14.69 21.76 14.31 22.20 13.96ZM26.01 7.50C23.87 7.50 22.79 8.96 22.79 11.10C22.79 13.24 23.86 14.69 26.00 14.69C27.45 14.69 28.36 13.93 28.36 13.93L27.97 13.27C27.97 13.27 27.10 13.78 26.01 13.78C24.61 13.78 24.11 12.50 24.11 11.10C24.11 9.70 24.61 8.30 26.01 8.30C26.42 8.30 26.75 8.39 27.16 8.72C27.22 8.92 27.26 9.10 27.26 9.20L27.26 9.70L28.07 9.74L28.21 7.99C27.37 7.71 26.84 7.50 26.01 7.50ZM29.04 4.65L30.10 4.87C30.10 4.87 30.24 5.66 30.24 5.94L30.24 12.63C30.24 12.91 30.13 13.57 30.10 13.69L29.02 13.92L29.09 14.62C29.09 14.62 30.37 14.55 30.65 14.55C31.77 14.55 32.45 14.62 32.45 14.62L32.55 13.79L31.46 13.69C31.44 13.58 31.37 12.82 31.37 12.21L31.37 10.71C31.39 9.34 32.06 8.36 33.17 8.36C34.34 8.36 34.61 9.51 34.61 10.68L34.61 12.63C34.61 12.98 34.54 13.38 34.47 13.69L33.53 13.92L33.60 14.62C33.60 14.62 34.75 14.55 35.03 14.55C36.15 14.55 36.83 14.62 36.83 14.62L36.93 13.79L35.84 13.69C35.84 13.69 35.74 12.91 35.74 12.21L35.74 10.68C35.74 8.75 35.31 7.50 33.38 7.50C32.42 7.50 31.75 8.01 31.37 8.57L31.37 6.36C31.37 5.70 31.43 4.65 31.47 4.21L31.21 3.96L30.39 3.96C30.11 3.96 29.11 3.91 29.11 3.91ZM41.10 13.79L40.01 13.69C40.01 13.69 39.91 12.91 39.91 12.21L39.91 10.02C39.91 9.32 40.01 7.88 40.01 7.88L39.75 7.63L38.93 7.63C38.65 7.63 37.65 7.57 37.65 7.57L37.58 8.32L38.64 8.54C38.64 8.54 38.78 9.32 38.78 9.60L38.78 12.63C38.78 12.91 38.64 13.69 38.64 13.69L37.58 13.92L37.65 14.62C37.65 14.62 38.92 14.55 39.20 14.55C40.32 14.55 41.01 14.62 41.01 14.62ZM39.35 4.47C38.82 4.47 38.53 4.84 38.53 5.38C38.53 5.91 38.82 6.27 39.35 6.27C39.89 6.27 40.18 5.91 40.18 5.38C40.18 4.80 39.87 4.47 39.35 4.47ZM46.10 7.50C45.05 7.50 44.34 8.13 44.00 8.78L43.92 7.88L43.65 7.63L43.15 7.63C42.87 7.63 41.86 7.57 41.86 7.57L41.79 8.32L42.85 8.54C42.85 8.54 42.99 9.32 42.99 9.60L42.99 12.70C42.97 13.02 42.85 13.69 42.85 13.69L41.79 13.92L41.86 14.62C41.86 14.62 43.13 14.55 43.41 14.55C44.53 14.55 45.22 14.62 45.22 14.62L45.32 13.79L44.23 13.69C44.23 13.69 44.13 12.91 44.13 12.21L44.13 10.71C44.14 9.34 44.81 8.36 45.86 8.36C46.91 8.36 47.14 9.51 47.14 10.68L47.14 12.63C47.14 12.98 47.07 13.38 47.00 13.69L46.06 13.92L46.13 14.62C46.13 14.62 47.28 14.55 47.56 14.55C48.68 14.55 49.36 14.62 49.36 14.62L49.46 13.79L48.37 13.69C48.37 13.69 48.27 12.91 48.27 12.21L48.27 10.68L48.27 10.58C48.31 9.27 48.99 8.36 50.01 8.36C51.06 8.36 51.28 9.51 51.28 10.68L51.28 12.63C51.28 12.98 51.21 13.38 51.14 13.69L50.20 13.92L50.27 14.62C50.27 14.62 51.42 14.55 51.70 14.55C52.82 14.55 53.51 14.62 53.51 14.62L53.61 13.79L52.51 13.69C52.51 13.69 52.42 12.91 52.42 12.21L52.42 10.68C52.42 8.75 52.02 7.50 50.25 7.50C49.18 7.50 48.44 8.15 48.05 8.83C47.78 7.99 47.21 7.50 46.10 7.50ZM58.14 7.50C57.39 7.50 56.46 8.09 56.17 8.78L56.08 7.88L55.82 7.63L55.31 7.63C55.03 7.63 54.03 7.57 54.03 7.57L53.96 8.32L55.02 8.54C55.02 8.54 55.16 9.32 55.16 9.60L55.16 15.89C55.16 16.21 55.02 16.88 55.02 16.88L54.10 17.11L54.17 17.81C54.17 17.81 55.17 17.74 55.59 17.74C56.71 17.74 57.67 17.81 57.67 17.81L57.76 16.98L56.39 16.88C56.39 16.88 56.29 16.10 56.29 15.40L56.29 14.34C56.80 14.56 57.32 14.69 57.79 14.69C59.65 14.69 61.01 13.12 61.01 10.96C61.01 8.76 59.96 7.50 58.14 7.50ZM58.03 8.36C59.16 8.36 59.75 9.25 59.75 10.99C59.75 12.84 59.02 13.85 57.71 13.85C57.27 13.85 56.78 13.68 56.29 13.34L56.29 10.57C56.29 9.24 56.98 8.36 58.03 8.36Z"></path></g><!----><!----></svg>