<?xml version="1.0" encoding="utf-8"?>
<!-- Generator: Adobe Illustrator 16.0.0, SVG Export Plug-In . SVG Version: 6.00 Build 0)  -->
<!DOCTYPE svg PUBLIC "-//W3C//DTD SVG 1.1//EN" "http://www.w3.org/Graphics/SVG/1.1/DTD/svg11.dtd">
<svg version="1.1" id="Capa_2" xmlns="http://www.w3.org/2000/svg" xmlns:xlink="http://www.w3.org/1999/xlink" x="0px" y="0px"
	 width="223.819px" height="68.106px" viewBox="0 0 223.819 68.106" enable-background="new 0 0 223.819 68.106"
	 xml:space="preserve">
<g>
	<path fill="#CCCCCC" d="M29.903,65.89c0,1.225-6.124,2.217-13.68,2.217S2.543,67.114,2.543,65.89s6.125-2.218,13.681-2.218
		S29.903,64.665,29.903,65.89"/>
	<path d="M1.987,42.87V6.318L2.304,5.92C3.58,4.313,9.27,1.988,16.223,1.988c6.952,0,12.643,2.325,13.918,3.932l0.316,0.398V42.87
		L16.223,57.985L1.987,42.87z"/>
	<path fill="#FFFFFF" d="M25.173,29.054c1.697-1.392,3.434-3.916,3.434-8.426c0-3.602-1.876-3.646-4.388-3.646H8.224
		c-2.511,0-4.386,0.045-4.386,3.646c0,4.51,1.736,7.034,3.434,8.426c-2.399,2.842-3.824,6.416-3.824,9.83v5.287l12.775,13.229
		l12.774-13.229v-5.287C28.997,35.47,27.572,31.896,25.173,29.054"/>
	<polygon points="10.765,51.747 16.222,57.399 21.68,51.747 	"/>
	<path d="M27.084,1.862C23.902,0.662,20.045,0,16.223,0c-3.82,0-7.678,0.662-10.859,1.862C2.914,2.786,0,4.358,0,6.599v36.375
		c0,0.438,0.167,0.861,0.469,1.183l14.498,15.398c0.326,0.346,0.781,0.543,1.256,0.543c0.474,0,0.93-0.197,1.256-0.543l14.5-15.398
		c0.301-0.321,0.469-0.745,0.469-1.183v-26.72v-0.005v-9.65C32.447,4.358,29.529,2.786,27.084,1.862 M28.997,42.29L16.223,55.856
		L3.447,42.29V6.827c0.842-1.061,5.969-3.379,12.775-3.379c6.806,0,11.933,2.318,12.774,3.379V42.29z"/>
	<path d="M16.223,45.016c-4.942,0-9.884-0.532-14.792-1.599c-0.745-0.161-1.218-0.896-1.056-1.641
		c0.162-0.745,0.898-1.217,1.641-1.055c9.428,2.047,18.986,2.047,28.412,0c0.744-0.162,1.48,0.311,1.641,1.055
		c0.162,0.744-0.311,1.479-1.055,1.641C26.105,44.483,21.164,45.016,16.223,45.016"/>
	<path d="M15.535,29.825c0,0.857-0.697,1.555-1.555,1.555c-0.858,0-1.555-0.697-1.555-1.555c0-0.859,0.696-1.555,1.555-1.555
		C14.838,28.271,15.535,28.966,15.535,29.825"/>
	<path d="M20.02,29.825c0,0.857-0.696,1.555-1.555,1.555c-0.859,0-1.556-0.697-1.556-1.555c0-0.859,0.696-1.555,1.556-1.555
		C19.323,28.271,20.02,28.966,20.02,29.825"/>
	<path d="M13.771,24.419c-0.173,0-0.35-0.032-0.52-0.102c-1.521-0.621-3.002-0.621-4.525,0c-0.705,0.287-1.51-0.052-1.797-0.758
		c-0.287-0.705,0.052-1.51,0.757-1.797c2.191-0.893,4.415-0.893,6.606,0c0.705,0.287,1.045,1.092,0.758,1.797
		C14.832,24.096,14.316,24.419,13.771,24.419"/>
	<path d="M24.236,24.419c-0.173,0-0.349-0.032-0.52-0.102c-1.521-0.621-3.002-0.621-4.524,0c-0.706,0.287-1.511-0.052-1.798-0.758
		c-0.287-0.705,0.051-1.51,0.758-1.797c2.191-0.893,4.414-0.893,6.605,0c0.705,0.287,1.045,1.092,0.757,1.797
		C25.297,24.096,24.781,24.419,24.236,24.419"/>
	<path d="M59.473,23.708h-7.105v23.496c0,0.365-0.254,0.73-0.654,0.73h-2.004c-0.365,0-0.656-0.329-0.656-0.73V23.708h-7.104
		c-0.4,0-0.729-0.184-0.729-0.584v-1.602c0-0.365,0.328-0.656,0.729-0.656h17.523c0.4,0,0.691,0.255,0.691,0.656v1.602
		C60.164,23.489,59.873,23.708,59.473,23.708"/>
	<path d="M78.669,38.936H66.465v0.509c0,4.337,1.711,5.939,5.064,5.939c2.111,0,4.808-0.146,6.483-0.4h0.183
		c0.291,0,0.582,0.146,0.582,0.51v1.238c0,0.473-0.145,0.729-0.729,0.838c-2.076,0.401-4.08,0.619-6.52,0.619
		c-4.191,0-8.271-1.968-8.271-8.744v-3.279c0-5.207,2.878-8.523,8.087-8.523c5.318,0,8.016,3.353,8.016,8.523v1.969
		C79.361,38.608,79.105,38.936,78.669,38.936 M76.118,36.165c0-4.115-1.565-5.718-4.772-5.718c-3.133,0-4.881,1.784-4.881,5.718
		v0.33h9.653V36.165z"/>
	<path d="M89.596,48.188c-1.348,0-3.971-0.109-5.756-0.547c-0.474-0.109-0.766-0.327-0.766-0.728v-1.276
		c0-0.326,0.292-0.546,0.656-0.546h0.146c1.749,0.22,4.408,0.401,5.72,0.401c2.368,0,3.606-0.619,3.606-2.588
		c0-1.092-0.655-1.783-2.732-3.022l-3.679-2.187c-2.223-1.348-3.717-2.914-3.717-5.209c0-3.789,2.842-4.846,6.595-4.846
		c2.04,0,3.97,0.182,5.683,0.474c0.474,0.073,0.691,0.328,0.691,0.729v1.201c0,0.438-0.254,0.619-0.619,0.619h-0.109
		c-1.273-0.109-3.605-0.291-5.646-0.291s-3.388,0.255-3.388,2.113c0,1.094,0.837,1.785,2.512,2.768l3.607,2.15
		c3.023,1.785,4.008,3.352,4.008,5.5C96.408,46.622,93.676,48.188,89.596,48.188"/>
	<path d="M110.688,48.007c-0.729,0.109-1.677,0.182-2.369,0.182c-3.352,0-4.953-0.874-4.953-4.881V30.593l-3.535-0.4
		c-0.4-0.037-0.691-0.255-0.691-0.656v-0.982c0-0.402,0.291-0.656,0.691-0.656h3.535v-3.57c0-0.364,0.254-0.656,0.654-0.729
		l1.895-0.29h0.109c0.292,0,0.546,0.254,0.546,0.619v3.971h3.936c0.401,0,0.728,0.328,0.728,0.729v1.238
		c0,0.4-0.326,0.729-0.728,0.729h-3.936v12.715c0,2.004,0.511,2.295,1.968,2.295h2.04c0.511,0,0.765,0.146,0.765,0.51v1.273
		C111.342,47.714,111.16,47.935,110.688,48.007"/>
	<path d="M135.631,26.259h-0.109c-1.748-0.074-4.48-0.292-7.577-0.292c-2.951,0-4.772,1.42-4.772,6.192v4.555
		c0,5.026,2.295,6.191,4.08,6.191c1.021,0,1.932-0.035,2.805-0.107v-8.381c0-0.4,0.292-0.728,0.692-0.728h4.663
		c0.4,0,0.729,0.327,0.729,0.728v12.24c0,0.512-0.182,0.729-0.729,0.84c-1.967,0.399-4.518,0.766-8.16,0.766
		c-4.152,0-10.383-2.367-10.383-11.586v-4.518c0-9.29,5.793-11.621,11.075-11.621c3.644,0,6.266,0.547,7.614,0.838
		c0.363,0.072,0.619,0.219,0.619,0.547v3.861C136.178,26.185,135.959,26.259,135.631,26.259"/>
	<path d="M149.29,48.263c-5.902,0-9.144-3.681-9.144-9.474v-2.55c0-5.792,3.241-9.471,9.144-9.471c5.901,0,9.107,3.679,9.107,9.471
		v2.55C158.397,44.582,155.191,48.263,149.29,48.263 M152.532,36.239c0-2.951-1.129-4.444-3.242-4.444
		c-2.112,0-3.278,1.493-3.278,4.444v2.55c0,2.951,1.166,4.482,3.278,4.482c2.113,0,3.242-1.531,3.242-4.482V36.239z"/>
	<path d="M173.076,31.649h-0.291c-1.785,0-3.352,0.547-4.699,1.275v14.244c0,0.4-0.328,0.766-0.729,0.766h-4.408
		c-0.401,0-0.766-0.365-0.766-0.766V27.788c0-0.401,0.328-0.729,0.729-0.729h4.336c0.4,0,0.728,0.327,0.728,0.729v0.729
		c1.349-1.13,3.17-1.748,4.919-1.748c0.4,0,0.729,0.326,0.729,0.729v3.461C173.623,31.284,173.404,31.649,173.076,31.649"/>
	<path d="M182.074,24.691h-4.736c-0.401,0-0.729-0.328-0.729-0.729v-3.389c0-0.399,0.327-0.729,0.729-0.729h4.736
		c0.4,0,0.729,0.329,0.729,0.729v3.389C182.803,24.363,182.475,24.691,182.074,24.691 M181.928,47.935h-4.445
		c-0.399,0-0.729-0.329-0.729-0.73V27.787c0-0.4,0.329-0.728,0.729-0.728h4.445c0.4,0,0.729,0.327,0.729,0.728v19.417
		C182.656,47.605,182.328,47.935,181.928,47.935"/>
	<path d="M192.381,47.935h-4.443c-0.4,0-0.765-0.365-0.765-0.766V20.72c0-0.4,0.364-0.729,0.765-0.729h4.443
		c0.402,0,0.693,0.328,0.693,0.729v26.449C193.074,47.569,192.783,47.935,192.381,47.935"/>
	<path d="M202.654,47.935h-4.445c-0.4,0-0.764-0.365-0.764-0.766V20.72c0-0.4,0.363-0.729,0.764-0.729h4.445
		c0.401,0,0.691,0.328,0.691,0.729v26.449C203.346,47.569,203.056,47.935,202.654,47.935"/>
	<path d="M223.092,47.935h-4.082c-0.4,0-0.729-0.329-0.729-0.73v-0.582c-1.42,1.02-2.877,1.641-5.062,1.641
		c-3.17,0-6.23-1.531-6.23-6.268v-0.328c0-4.262,2.732-6.156,8.961-6.156h1.969V34.2c0-2.077-1.021-2.516-2.732-2.516
		c-2.332,0-4.918,0.146-6.048,0.256h-0.183c-0.363,0-0.656-0.182-0.656-0.656v-2.95c0-0.4,0.256-0.692,0.693-0.802
		c1.348-0.327,3.897-0.764,6.302-0.764c5.247,0,8.525,2.112,8.525,7.432v13.004C223.819,47.605,223.491,47.935,223.092,47.935
		 M218.027,39.008h-2.078c-2.549,0-3.205,0.875-3.205,2.659v0.328c0,1.53,0.766,1.822,2.296,1.822c1.093,0,2.112-0.364,2.987-0.803
		V39.008z"/>
</g>
</svg>
