
<svg width="190" height="54" viewBox="0 0 190 54" fill="none" xmlns="http://www.w3.org/2000/svg">
<rect width="190" height="54" fill="none"/>
<g clip-path="url(#clip0_425_4010)">
<path d="M9.23047 38.9736L15.0987 45.1885H21.4253L27.2935 38.9736C24.2911 39.4587 21.2748 39.7029 18.262 39.7029C15.2491 39.7029 12.2328 39.4587 9.23047 38.9736Z" fill="none"/>
<path d="M28.7073 36.4367V34.7024C28.7073 31.9178 27.542 29.004 25.5824 26.687C26.9681 25.5529 28.3888 23.4941 28.3888 19.8161C28.3888 16.8814 26.8562 16.843 24.8021 16.843H11.722C9.66798 16.843 8.13532 16.8779 8.13532 19.8161C8.13532 23.4941 9.55601 25.5494 10.9417 26.687C8.97864 29.004 7.81689 31.9178 7.81689 34.7024V36.4367C14.7524 37.7872 21.7683 37.7872 28.7038 36.4367H28.7073ZM19.8402 20.7443C21.6318 20.015 23.4514 20.015 25.2395 20.7443C25.8169 20.9781 26.0933 21.6341 25.8589 22.2099C25.6804 22.6461 25.2605 22.9113 24.8126 22.9113C24.6691 22.9113 24.5257 22.8834 24.3857 22.8311C23.1435 22.3251 21.9328 22.3251 20.687 22.8311C20.1097 23.0649 19.4518 22.7892 19.2174 22.2134C18.9829 21.6376 19.2594 20.9816 19.8367 20.7478L19.8402 20.7443ZM20.0957 26.0519C20.799 26.0519 21.3659 26.6207 21.3659 27.3186C21.3659 28.0165 20.7955 28.5853 20.0957 28.5853C19.3958 28.5853 18.8254 28.0165 18.8254 27.3186C18.8254 26.6207 19.3958 26.0519 20.0957 26.0519ZM12.1349 22.8276C11.5576 23.0614 10.8997 22.7857 10.6653 22.2099C10.4308 21.6341 10.7073 20.9781 11.2846 20.7443C13.0762 20.015 14.8958 20.015 16.6839 20.7443C17.2613 20.9781 17.5377 21.6341 17.3033 22.2099C17.1248 22.6461 16.7049 22.9113 16.257 22.9113C16.1136 22.9113 15.9701 22.8834 15.8301 22.8311C14.5879 22.3251 13.3772 22.3251 12.1279 22.8311L12.1349 22.8276ZM16.4285 28.5853C15.7251 28.5853 15.1583 28.0165 15.1583 27.3186C15.1583 26.6207 15.7286 26.0519 16.4285 26.0519C17.1283 26.0519 17.6987 26.6207 17.6987 27.3186C17.6987 28.0165 17.1283 28.5853 16.4285 28.5853Z" fill="none"/>
<path d="M27.1431 4.51795C24.5397 3.53739 21.3869 3 18.2656 3C15.1442 3 11.9879 3.54088 9.38453 4.51795C7.37947 5.27169 5 6.55234 5 8.38086V38.0384C5 38.3978 5.13647 38.7433 5.38142 39.0015L17.2368 51.5568C17.5027 51.8395 17.8736 52 18.2656 52C18.6575 52 19.0249 51.8395 19.2943 51.5568L31.1497 39.0015C31.3946 38.7398 31.5311 38.3943 31.5311 38.0384V16.2532V8.38086C31.5311 6.55234 29.1481 5.27169 27.1466 4.51795H27.1431ZM7.82037 34.7024C7.82037 31.9177 8.98561 29.004 10.9452 26.6869C9.55949 25.5528 8.1388 23.494 8.1388 19.8161C8.1388 16.8814 9.67146 16.843 11.7255 16.843H24.8021C26.8561 16.843 28.3888 16.8779 28.3888 19.8161C28.3888 23.4905 26.9681 25.5494 25.5824 26.6869C27.5455 29.004 28.7072 31.9177 28.7072 34.7024V36.4367C21.7718 37.7871 14.7558 37.7871 7.82037 36.4367V34.7024ZM21.4288 45.1884H15.1023L9.23406 38.9736C12.2364 39.4586 15.2527 39.7029 18.2656 39.7029C21.2784 39.7029 24.2912 39.4586 27.297 38.9736L21.4288 45.1884Z" fill="#010101"/>
<path d="M16.4284 26.0483C15.7251 26.0483 15.1582 26.6171 15.1582 27.315C15.1582 28.0129 15.7286 28.5817 16.4284 28.5817C17.1283 28.5817 17.6986 28.0129 17.6986 27.315C17.6986 26.6171 17.1283 26.0483 16.4284 26.0483Z" fill="#010101"/>
<path d="M20.0957 28.5817C20.799 28.5817 21.3659 28.0129 21.3659 27.315C21.3659 26.6171 20.7955 26.0483 20.0957 26.0483C19.3958 26.0483 18.8254 26.6171 18.8254 27.315C18.8254 28.0129 19.3958 28.5817 20.0957 28.5817Z" fill="#010101"/>
<path d="M16.2604 22.9078C16.7048 22.9078 17.1282 22.6426 17.3067 22.2064C17.5411 21.6307 17.2647 20.9746 16.6873 20.7408C14.8957 20.0115 13.0761 20.0115 11.288 20.7408C10.7106 20.9746 10.4342 21.6307 10.6686 22.2064C10.9031 22.7822 11.5609 23.0579 12.1383 22.8241C13.3805 22.3181 14.5913 22.3181 15.8405 22.8241C15.9805 22.8834 16.1239 22.9043 16.2674 22.9043L16.2604 22.9078Z" fill="#010101"/>
<path d="M20.6905 22.8276C21.9327 22.3216 23.1434 22.3216 24.3891 22.8276C24.5291 22.8869 24.6726 22.9078 24.8161 22.9078C25.2605 22.9078 25.6839 22.6426 25.8623 22.2064C26.0968 21.6307 25.8203 20.9746 25.243 20.7408C23.4514 20.0115 21.6318 20.0115 19.8437 20.7408C19.2663 20.9746 18.9898 21.6307 19.2243 22.2064C19.4587 22.7822 20.1166 23.0579 20.694 22.8241L20.6905 22.8276Z" fill="#010101"/>
<path d="M54.479 19.0624H48.6703V38.2199C48.6703 38.5165 48.4639 38.8132 48.1349 38.8132H46.4973C46.1999 38.8132 45.9619 38.548 45.9619 38.2199V19.0624H40.1532C39.8243 19.0624 39.5583 18.9124 39.5583 18.5878V17.2793C39.5583 16.9826 39.8243 16.7454 40.1532 16.7454H54.479C54.808 16.7454 55.0459 16.9547 55.0459 17.2793V18.5878C55.0459 18.8844 54.808 19.0624 54.479 19.0624Z" fill="#010101"/>
<path d="M66.3275 31.4781H56.3512V31.8934C56.3512 35.4283 57.7509 36.7368 60.4943 36.7368C62.2229 36.7368 64.4274 36.6182 65.7956 36.4088H65.9461C66.184 36.4088 66.422 36.5275 66.422 36.8241V37.8325C66.422 38.2164 66.303 38.4258 65.8271 38.5165C64.13 38.8445 62.4924 39.019 60.4978 39.019C57.0721 39.019 53.7373 37.4138 53.7373 31.8899V29.2169C53.7373 24.9701 56.0923 22.2657 60.3473 22.2657C64.6024 22.2657 66.9014 24.998 66.9014 29.2169V30.8221C66.9014 31.2059 66.6914 31.4781 66.3345 31.4781H66.3275ZM64.242 29.2204C64.242 25.8669 62.9613 24.5584 60.3403 24.5584C57.7194 24.5584 56.3512 26.0135 56.3512 29.2204V29.4891H64.2455V29.2204H64.242Z" fill="#010101"/>
<path d="M75.261 39.0225C74.1587 39.0225 72.0172 38.9352 70.558 38.5758C70.1731 38.4886 69.9316 38.3106 69.9316 37.9826V36.9427C69.9316 36.6775 70.1731 36.4961 70.467 36.4961H70.586C72.0137 36.674 74.1902 36.8241 75.2645 36.8241C77.203 36.8241 78.2143 36.3181 78.2143 34.7164C78.2143 33.8266 77.6789 33.2613 75.9783 32.2493L72.9725 30.4661C71.1564 29.3669 69.9351 28.0898 69.9351 26.2159C69.9351 23.1242 72.2586 22.2657 75.3274 22.2657C76.9931 22.2657 78.5712 22.4158 79.9744 22.6496C80.3593 22.7089 80.5413 22.9148 80.5413 23.2428V24.2234C80.5413 24.5828 80.3313 24.7259 80.0374 24.7259H79.9499C78.9071 24.6386 77.0001 24.4886 75.3344 24.4886C73.6688 24.4886 72.5631 24.6979 72.5631 26.2124C72.5631 27.1022 73.2489 27.6675 74.6171 28.4701L77.5669 30.2219C80.0409 31.677 80.8422 32.9542 80.8422 34.7059C80.8422 37.7348 78.6062 39.012 75.2715 39.012V39.019L75.261 39.0225Z" fill="#010101"/>
<path d="M92.5087 38.876C91.9138 38.9633 91.137 39.0261 90.5701 39.0261C87.8302 39.0261 86.518 38.3142 86.518 35.048V24.6841L83.6277 24.3561C83.2987 24.3247 83.0608 24.1467 83.0608 23.8222V23.0231C83.0608 22.6951 83.2987 22.4892 83.6277 22.4892H86.518V19.5789C86.518 19.2823 86.7245 19.045 87.0534 18.9857L88.6001 18.7484H88.6875C88.9255 18.7484 89.1354 18.9578 89.1354 19.2509V22.4892H92.3512C92.6802 22.4892 92.9461 22.7544 92.9461 23.0824V24.0909C92.9461 24.4189 92.6802 24.6841 92.3512 24.6841H89.1354V35.048C89.1354 36.6811 89.5518 36.9184 90.7451 36.9184H92.4107C92.8271 36.9184 93.0371 37.037 93.0371 37.3337V38.3735C93.0371 38.6387 92.8866 38.8202 92.5017 38.8795V38.8725L92.5087 38.876Z" fill="#010101"/>
<path d="M112.899 21.1421H112.811C111.383 21.0828 109.147 20.9048 106.617 20.9048C104.087 20.9048 102.716 22.0634 102.716 25.9542V29.667C102.716 33.7672 104.591 34.7164 106.051 34.7164C106.883 34.7164 107.629 34.685 108.343 34.6292V27.7967C108.343 27.4686 108.58 27.2034 108.909 27.2034H112.724C113.053 27.2034 113.318 27.4686 113.318 27.7967V37.7767C113.318 38.192 113.168 38.3699 112.724 38.4607C111.114 38.7887 109.032 39.0853 106.051 39.0853C102.656 39.0853 97.5649 37.1521 97.5649 29.6391V25.9577C97.5649 18.3819 102.299 16.4801 106.621 16.4801C109.599 16.4801 111.744 16.9268 112.846 17.1641C113.143 17.2234 113.35 17.342 113.35 17.6107V20.7583C113.35 21.0863 113.171 21.1421 112.902 21.1421H112.899Z" fill="#010101"/>
<path d="M124.068 39.0818C119.243 39.0818 116.594 36.0843 116.594 31.3595V29.2797C116.594 24.5584 119.246 21.5574 124.068 21.5574C128.89 21.5574 131.514 24.5549 131.514 29.2797V31.3595C131.514 36.0808 128.894 39.0818 124.068 39.0818ZM126.72 29.2797C126.72 26.8754 125.8 25.6541 124.068 25.6541C122.336 25.6541 121.388 26.8719 121.388 29.2797V31.3595C121.388 33.7638 122.343 35.013 124.068 35.013C125.793 35.013 126.72 33.7638 126.72 31.3595V29.2797Z" fill="#010101"/>
<path d="M143.513 25.5389H143.275C141.816 25.5389 140.535 25.9856 139.433 26.5788V38.192C139.433 38.52 139.167 38.8166 138.838 38.8166H135.234C134.905 38.8166 134.608 38.52 134.608 38.192V22.3879C134.608 22.0599 134.874 21.7947 135.203 21.7947H138.747C139.076 21.7947 139.342 22.0599 139.342 22.3879V22.9811C140.444 22.0599 141.932 21.5574 143.363 21.5574C143.692 21.5574 143.958 21.8226 143.958 22.1506V24.9701C143.958 25.2353 143.779 25.5354 143.51 25.5354L143.513 25.5389Z" fill="#010101"/>
<path d="M150.869 19.8649H146.998C146.669 19.8649 146.404 19.5997 146.404 19.2717V16.508C146.404 16.18 146.669 15.9148 146.998 15.9148H150.869C151.197 15.9148 151.463 16.18 151.463 16.508V19.2717C151.463 19.5997 151.197 19.8649 150.869 19.8649ZM150.75 38.8166H147.114C146.785 38.8166 146.519 38.5514 146.519 38.2234V22.3949C146.519 22.0668 146.785 21.8016 147.114 21.8016H150.75C151.079 21.8016 151.344 22.0668 151.344 22.3949V38.2234C151.344 38.5514 151.079 38.8166 150.75 38.8166Z" fill="#010101"/>
<path d="M159.298 38.8131H155.662C155.334 38.8131 155.036 38.5165 155.036 38.1885V16.6267C155.036 16.2987 155.334 16.0334 155.662 16.0334H159.298C159.627 16.0334 159.865 16.2987 159.865 16.6267V38.192C159.865 38.52 159.627 38.8166 159.298 38.8166V38.8131Z" fill="#010101"/>
<path d="M167.696 38.8131H164.061C163.732 38.8131 163.438 38.5165 163.438 38.1885V16.6267C163.438 16.2987 163.735 16.0334 164.061 16.0334H167.696C168.025 16.0334 168.263 16.2987 168.263 16.6267V38.192C168.263 38.52 168.025 38.8166 167.696 38.8166V38.8131Z" fill="#010101"/>
<path d="M184.405 38.8132H181.07C180.741 38.8132 180.475 38.548 180.475 38.2199V37.7454C179.314 38.5759 178.12 39.0819 176.336 39.0819C173.746 39.0819 171.241 37.8361 171.241 33.9732V33.708C171.241 30.2324 173.473 28.69 178.568 28.69H180.178V27.6187C180.178 25.9263 179.345 25.5704 177.942 25.5704C176.035 25.5704 173.921 25.689 172.998 25.7798H172.847C172.55 25.7798 172.312 25.6297 172.312 25.2459V22.8416C172.312 22.5136 172.522 22.2763 172.879 22.1855C173.981 21.9203 176.066 21.5609 178.029 21.5609C182.316 21.5609 185 23.2847 185 27.6187V38.2234C185 38.5514 184.734 38.8166 184.405 38.8166V38.8132ZM180.262 31.534H178.565C176.479 31.534 175.944 32.2459 175.944 33.701V33.9662C175.944 35.212 176.57 35.4527 177.82 35.4527C178.712 35.4527 179.548 35.1561 180.262 34.7967V31.5305V31.534Z" fill="#010101"/>
</g>
<defs>
<clipPath id="clip0_425_4010">
<rect width="180" height="49" fill="none" transform="translate(5 3)"/>
</clipPath>
</defs>
</svg>
