<svg width="182" height="101" viewBox="0 0 182 101" fill="none" xmlns="http://www.w3.org/2000/svg">
<g id="Home-Page_G2-Logos-Fall-2023.svg">
<g id="Group">
<g id="Group_2">
<path id="Vector" d="M100.87 80.35L129.97 95.14C132.11 96.23 134.65 96.21 136.77 95.09L164.77 80.37C167.21 79.09 168.73 76.56 168.73 73.81V15.01C168.73 10.19 164.82 6.28 160 6.28H105.54C100.72 6.28 96.8101 10.19 96.8101 15.01V73.74C96.8101 76.53 98.3801 79.08 100.86 80.34L100.87 80.35Z" fill="#EDEDED"/>
<path id="Vector_2" d="M132.78 9.67C133.13 9.67 133.47 9.67 133.82 9.76L132.78 11.76C131.22 11.67 129.83 12.89 129.74 14.45C129.65 16.01 130.87 17.4 132.43 17.49H132.78C133.47 17.49 134.17 17.23 134.69 16.8L135.82 18.71C134.95 19.32 133.91 19.67 132.78 19.67C130 19.76 127.65 17.67 127.57 14.89C127.48 12.11 129.57 9.76 132.35 9.68H132.78V9.67ZM136.34 13.93L137.64 16.1L136.34 18.18L135.12 16.1H132.6L133.9 13.93H136.33H136.34ZM134.26 13.15C134.26 12.8 134.35 12.46 134.52 12.19C134.69 11.92 135.04 11.67 135.3 11.5L135.47 11.41C135.82 11.24 135.9 11.15 135.9 10.98C135.9 10.81 135.64 10.63 135.47 10.63C135.12 10.63 134.86 10.8 134.69 11.15L134.26 10.72C134.35 10.55 134.52 10.37 134.69 10.2C134.95 10.03 135.21 10.03 135.47 10.03C135.73 10.03 136.08 10.12 136.25 10.29C136.42 10.46 136.6 10.72 136.6 10.98C136.6 11.41 136.34 11.76 135.82 11.94L135.56 12.11C135.3 12.28 135.13 12.37 135.04 12.63H136.6V13.24L134.25 13.15H134.26ZM132.78 24.01L141.03 19.32V6.28H124.44V19.22L132.78 24V24.01Z" fill="#F04E35"/>
</g>
<g id="Group_3">
<path id="Vector_3" d="M108.55 45.35C108.55 45.35 108.49 45.27 108.49 45.21V34.39C108.49 34.34 108.51 34.29 108.55 34.25C108.59 34.21 108.63 34.19 108.69 34.19H110.56C110.61 34.19 110.66 34.21 110.7 34.25C110.74 34.29 110.76 34.33 110.76 34.39V43.38C110.76 43.43 110.79 43.46 110.84 43.46H116.07C116.12 43.46 116.17 43.48 116.21 43.52C116.25 43.56 116.27 43.6 116.27 43.66V45.21C116.27 45.26 116.25 45.31 116.21 45.35C116.17 45.39 116.13 45.41 116.07 45.41H108.69C108.64 45.41 108.59 45.39 108.55 45.35Z" fill="#010101"/>
<path id="Vector_4" d="M124.85 41.8C124.84 41.93 124.77 41.99 124.64 41.99H119.7C119.64 41.99 119.61 42.02 119.64 42.07C119.67 42.28 119.73 42.5 119.82 42.71C120.1 43.31 120.66 43.61 121.52 43.61C122.2 43.6 122.74 43.32 123.14 42.78C123.18 42.72 123.23 42.68 123.28 42.68C123.31 42.68 123.35 42.7 123.39 42.74L124.54 43.88C124.59 43.93 124.62 43.98 124.62 44.02C124.62 44.04 124.6 44.08 124.56 44.15C124.21 44.59 123.75 44.93 123.2 45.17C122.64 45.41 122.04 45.53 121.38 45.53C120.46 45.53 119.69 45.32 119.05 44.91C118.41 44.5 117.96 43.91 117.68 43.17C117.46 42.64 117.34 41.94 117.34 41.07C117.34 40.48 117.42 39.97 117.58 39.52C117.83 38.76 118.25 38.16 118.87 37.71C119.48 37.26 120.21 37.04 121.05 37.04C122.12 37.04 122.97 37.35 123.62 37.97C124.27 38.59 124.66 39.42 124.8 40.45C124.86 40.86 124.89 41.31 124.86 41.81L124.85 41.8ZM119.73 39.93C119.69 40.07 119.65 40.24 119.62 40.44C119.62 40.49 119.65 40.52 119.7 40.52H122.47C122.53 40.52 122.56 40.49 122.53 40.44C122.48 40.13 122.45 39.98 122.45 39.99C122.35 39.67 122.19 39.42 121.95 39.25C121.71 39.07 121.41 38.99 121.06 38.99C120.39 38.99 119.95 39.3 119.73 39.93Z" fill="#010101"/>
<path id="Vector_5" d="M131.29 37.41C131.83 37.65 132.26 37.98 132.56 38.39C132.86 38.81 133.02 39.27 133.02 39.78V45.2C133.02 45.25 133 45.3 132.96 45.34C132.92 45.38 132.88 45.4 132.82 45.4H130.95C130.9 45.4 130.85 45.38 130.81 45.34C130.77 45.3 130.75 45.26 130.75 45.2V44.67C130.75 44.67 130.74 44.62 130.72 44.61C130.7 44.6 130.68 44.61 130.66 44.64C130.21 45.23 129.49 45.52 128.5 45.52C127.67 45.52 127 45.32 126.48 44.91C125.96 44.5 125.71 43.91 125.71 43.12C125.71 42.33 126 41.66 126.57 41.21C127.15 40.76 127.97 40.53 129.03 40.53H130.66C130.71 40.53 130.74 40.5 130.74 40.45V40.1C130.74 39.75 130.63 39.47 130.42 39.28C130.21 39.08 129.89 38.98 129.46 38.98C129.13 38.98 128.85 39.04 128.64 39.16C128.42 39.28 128.28 39.44 128.22 39.66C128.19 39.78 128.12 39.83 128.01 39.82L126.07 39.56C125.94 39.54 125.88 39.49 125.89 39.42C125.93 38.97 126.11 38.57 126.43 38.2C126.74 37.84 127.16 37.55 127.68 37.35C128.2 37.15 128.78 37.05 129.42 37.05C130.11 37.05 130.73 37.17 131.28 37.41H131.29ZM130.28 43.48C130.6 43.23 130.76 42.92 130.76 42.54V41.96C130.76 41.91 130.73 41.88 130.68 41.88H129.53C129.05 41.88 128.67 41.97 128.4 42.15C128.13 42.33 127.99 42.59 127.99 42.92C127.99 43.21 128.09 43.43 128.29 43.6C128.49 43.77 128.76 43.85 129.11 43.85C129.57 43.85 129.96 43.73 130.28 43.48Z" fill="#010101"/>
<path id="Vector_6" d="M139.77 34.26C139.77 34.26 139.85 34.2 139.91 34.2H141.78C141.83 34.2 141.88 34.22 141.92 34.26C141.96 34.3 141.98 34.34 141.98 34.4V45.22C141.98 45.27 141.96 45.32 141.92 45.36C141.88 45.4 141.84 45.42 141.78 45.42H139.91C139.86 45.42 139.81 45.4 139.77 45.36C139.73 45.32 139.71 45.28 139.71 45.22V44.69C139.71 44.69 139.7 44.64 139.68 44.63C139.66 44.62 139.64 44.63 139.62 44.65C139.17 45.24 138.56 45.53 137.78 45.53C137 45.53 136.39 45.32 135.85 44.91C135.31 44.5 134.92 43.92 134.69 43.2C134.51 42.65 134.42 42 134.42 41.26C134.42 40.52 134.52 39.84 134.71 39.28C134.96 38.6 135.34 38.06 135.87 37.66C136.4 37.26 137.05 37.06 137.83 37.06C138.61 37.06 139.2 37.33 139.62 37.86C139.64 37.89 139.66 37.9 139.68 37.89C139.7 37.88 139.71 37.86 139.71 37.83V34.41C139.71 34.36 139.73 34.31 139.77 34.27V34.26ZM139.7 41.29C139.7 40.58 139.58 40.02 139.35 39.61C139.1 39.19 138.75 38.99 138.28 38.99C137.78 38.99 137.4 39.2 137.14 39.61C136.87 40.03 136.74 40.59 136.74 41.31C136.74 41.95 136.85 42.48 137.08 42.91C137.35 43.37 137.74 43.6 138.26 43.6C138.74 43.6 139.11 43.37 139.38 42.91C139.59 42.52 139.7 41.98 139.7 41.29Z" fill="#010101"/>
<path id="Vector_7" d="M151.01 41.8C151 41.93 150.93 41.99 150.8 41.99H145.86C145.8 41.99 145.77 42.02 145.8 42.07C145.83 42.28 145.89 42.5 145.98 42.71C146.26 43.31 146.82 43.61 147.68 43.61C148.36 43.6 148.9 43.32 149.3 42.78C149.34 42.72 149.39 42.68 149.44 42.68C149.47 42.68 149.51 42.7 149.55 42.74L150.7 43.88C150.75 43.93 150.78 43.98 150.78 44.02C150.78 44.04 150.76 44.08 150.72 44.15C150.37 44.59 149.91 44.93 149.36 45.17C148.8 45.41 148.2 45.53 147.54 45.53C146.62 45.53 145.85 45.32 145.21 44.91C144.57 44.5 144.12 43.91 143.84 43.17C143.62 42.64 143.5 41.94 143.5 41.07C143.5 40.48 143.58 39.97 143.74 39.52C143.99 38.76 144.41 38.16 145.03 37.71C145.64 37.26 146.37 37.04 147.21 37.04C148.28 37.04 149.13 37.35 149.78 37.97C150.43 38.59 150.82 39.42 150.96 40.45C151.02 40.86 151.05 41.31 151.02 41.81L151.01 41.8ZM145.89 39.93C145.85 40.07 145.81 40.24 145.78 40.44C145.78 40.49 145.81 40.52 145.86 40.52H148.63C148.69 40.52 148.72 40.49 148.69 40.44C148.64 40.13 148.61 39.98 148.61 39.99C148.51 39.67 148.35 39.42 148.11 39.25C147.87 39.07 147.57 38.99 147.22 38.99C146.55 38.99 146.11 39.3 145.89 39.93Z" fill="#010101"/>
<path id="Vector_8" d="M157.41 37.29C157.5 37.33 157.53 37.41 157.51 37.53L157.17 39.35C157.16 39.48 157.08 39.52 156.95 39.46C156.79 39.41 156.6 39.38 156.39 39.38C156.3 39.38 156.19 39.39 156.04 39.41C155.66 39.44 155.33 39.58 155.06 39.83C154.79 40.08 154.66 40.41 154.66 40.83V45.2C154.66 45.25 154.64 45.3 154.6 45.34C154.56 45.38 154.52 45.4 154.46 45.4H152.59C152.54 45.4 152.49 45.38 152.45 45.34C152.41 45.3 152.39 45.26 152.39 45.2V37.36C152.39 37.31 152.41 37.26 152.45 37.22C152.49 37.18 152.53 37.16 152.59 37.16H154.46C154.51 37.16 154.56 37.18 154.6 37.22C154.64 37.26 154.66 37.3 154.66 37.36V37.97C154.66 37.97 154.67 38.02 154.69 38.03C154.71 38.04 154.73 38.03 154.74 38.01C155.18 37.37 155.76 37.05 156.5 37.05C156.88 37.05 157.19 37.12 157.41 37.27V37.29Z" fill="#010101"/>
</g>
<g id="Group_4">
<path id="Vector_9" d="M119.47 78.34C119.47 78.34 119.5 78.37 119.53 78.37H123.59C123.59 78.37 123.68 78.39 123.72 78.42C123.76 78.46 123.77 78.5 123.77 78.55V80C123.77 80.05 123.75 80.09 123.72 80.13C123.68 80.17 123.64 80.18 123.59 80.18H116.84C116.79 80.18 116.75 80.16 116.71 80.13C116.67 80.1 116.66 80.05 116.66 80V78.62C116.66 78.53 116.69 78.45 116.75 78.39C117.24 77.91 117.74 77.39 118.25 76.82C118.76 76.26 119.08 75.9 119.21 75.76C119.49 75.43 119.77 75.11 120.06 74.82C120.97 73.81 121.42 73.06 121.42 72.57C121.42 72.22 121.3 71.93 121.04 71.71C120.79 71.48 120.46 71.37 120.07 71.37C119.68 71.37 119.34 71.48 119.09 71.71C118.84 71.93 118.71 72.23 118.71 72.6V72.98C118.71 73.03 118.69 73.07 118.66 73.11C118.63 73.15 118.58 73.16 118.53 73.16H116.76C116.71 73.16 116.67 73.14 116.63 73.11C116.59 73.08 116.58 73.03 116.58 72.98V72.28C116.61 71.74 116.78 71.26 117.09 70.85C117.4 70.44 117.81 70.12 118.33 69.9C118.85 69.68 119.42 69.57 120.06 69.57C120.77 69.57 121.39 69.7 121.91 69.97C122.44 70.24 122.84 70.59 123.13 71.04C123.41 71.49 123.56 71.99 123.56 72.54C123.56 72.96 123.46 73.39 123.25 73.83C123.04 74.27 122.73 74.75 122.31 75.25C122 75.64 121.66 76.02 121.31 76.41C120.95 76.79 120.41 77.34 119.71 78.06L119.48 78.29C119.48 78.29 119.45 78.33 119.46 78.35L119.47 78.34Z" fill="#010101"/>
<path id="Vector_10" d="M126.04 79.43C125.4 78.81 125.08 77.98 125.08 76.92V72.96C125.08 71.92 125.4 71.1 126.04 70.48C126.68 69.87 127.55 69.56 128.65 69.56C129.75 69.56 130.62 69.87 131.27 70.48C131.92 71.09 132.24 71.92 132.24 72.96V76.92C132.24 77.98 131.92 78.82 131.27 79.43C130.62 80.04 129.75 80.35 128.65 80.35C127.55 80.35 126.68 80.04 126.04 79.43ZM129.72 78.12C129.98 77.85 130.12 77.48 130.12 77.02V72.9C130.12 72.44 129.99 72.07 129.72 71.8C129.45 71.53 129.1 71.39 128.65 71.39C128.2 71.39 127.86 71.53 127.59 71.8C127.32 72.08 127.19 72.44 127.19 72.9V77.02C127.19 77.48 127.32 77.85 127.59 78.12C127.85 78.4 128.21 78.53 128.65 78.53C129.09 78.53 129.46 78.39 129.72 78.12Z" fill="#010101"/>
<path id="Vector_11" d="M136.42 78.34C136.42 78.34 136.45 78.37 136.48 78.37H140.54C140.54 78.37 140.63 78.39 140.67 78.42C140.71 78.46 140.72 78.5 140.72 78.55V80C140.72 80.05 140.7 80.09 140.67 80.13C140.63 80.17 140.59 80.18 140.54 80.18H133.79C133.74 80.18 133.7 80.16 133.66 80.13C133.62 80.1 133.61 80.05 133.61 80V78.62C133.61 78.53 133.64 78.45 133.7 78.39C134.19 77.91 134.69 77.39 135.2 76.82C135.71 76.26 136.03 75.9 136.16 75.76C136.44 75.43 136.72 75.11 137.01 74.82C137.92 73.81 138.37 73.06 138.37 72.57C138.37 72.22 138.25 71.93 137.99 71.71C137.74 71.48 137.41 71.37 137.02 71.37C136.63 71.37 136.29 71.48 136.04 71.71C135.79 71.93 135.66 72.23 135.66 72.6V72.98C135.66 73.03 135.64 73.07 135.61 73.11C135.58 73.15 135.53 73.16 135.48 73.16H133.71C133.66 73.16 133.62 73.14 133.58 73.11C133.54 73.08 133.53 73.03 133.53 72.98V72.28C133.56 71.74 133.73 71.26 134.04 70.85C134.35 70.44 134.76 70.12 135.28 69.9C135.8 69.68 136.37 69.57 137.01 69.57C137.72 69.57 138.34 69.7 138.86 69.97C139.39 70.24 139.79 70.59 140.08 71.04C140.36 71.49 140.51 71.99 140.51 72.54C140.51 72.96 140.41 73.39 140.2 73.83C139.99 74.27 139.68 74.75 139.26 75.25C138.95 75.64 138.61 76.02 138.26 76.41C137.9 76.79 137.36 77.34 136.66 78.06L136.43 78.29C136.43 78.29 136.4 78.33 136.41 78.35L136.42 78.34Z" fill="#010101"/>
<path id="Vector_12" d="M148.58 76.77C148.58 77.31 148.49 77.81 148.31 78.27C148.07 78.91 147.67 79.41 147.1 79.77C146.53 80.13 145.87 80.31 145.1 80.31C144.33 80.31 143.67 80.12 143.1 79.74C142.52 79.36 142.11 78.85 141.86 78.2C141.72 77.81 141.64 77.39 141.62 76.94C141.62 76.82 141.68 76.76 141.8 76.76H143.57C143.69 76.76 143.75 76.82 143.75 76.94C143.79 77.27 143.84 77.52 143.92 77.67C144.01 77.93 144.16 78.13 144.36 78.28C144.57 78.43 144.81 78.5 145.09 78.5C145.65 78.5 146.03 78.25 146.25 77.76C146.39 77.46 146.46 77.11 146.46 76.71C146.46 76.24 146.38 75.86 146.23 75.56C146 75.09 145.61 74.85 145.07 74.85C144.96 74.85 144.85 74.88 144.73 74.95C144.61 75.02 144.46 75.11 144.29 75.23C144.25 75.26 144.21 75.27 144.17 75.27C144.11 75.27 144.07 75.24 144.04 75.18L143.15 73.93C143.15 73.93 143.12 73.87 143.12 73.83C143.12 73.77 143.14 73.72 143.18 73.68L145.56 71.59C145.56 71.59 145.59 71.55 145.58 71.53C145.57 71.51 145.56 71.5 145.53 71.5H142C142 71.5 141.91 71.48 141.87 71.45C141.83 71.42 141.82 71.37 141.82 71.32V69.87C141.82 69.82 141.84 69.78 141.87 69.74C141.9 69.7 141.95 69.69 142 69.69H148.26C148.26 69.69 148.35 69.71 148.39 69.74C148.42 69.78 148.44 69.82 148.44 69.87V71.52C148.44 71.6 148.4 71.68 148.34 71.75L146.38 73.55C146.38 73.55 146.35 73.59 146.36 73.61C146.36 73.63 146.39 73.64 146.43 73.64C147.3 73.81 147.92 74.33 148.29 75.19C148.49 75.65 148.59 76.18 148.59 76.78L148.58 76.77Z" fill="#010101"/>
</g>
<path id="Vector_13" d="M168.51 50.75H97.05C94.9072 50.75 93.17 52.4871 93.17 54.63V61.03C93.17 63.1729 94.9072 64.91 97.05 64.91H168.51C170.653 64.91 172.39 63.1729 172.39 61.03V54.63C172.39 52.4871 170.653 50.75 168.51 50.75Z" fill="#F04E35"/>
<g id="Group_5">
<path id="Vector_14" d="M127.46 55.67C127.46 55.67 127.41 55.7 127.38 55.7H124.44C124.44 55.7 124.4 55.72 124.4 55.74V57.14C124.4 57.14 124.41 57.18 124.44 57.18H126.37C126.37 57.18 126.43 57.19 126.45 57.21C126.47 57.23 126.48 57.26 126.48 57.29V58.16C126.48 58.16 126.47 58.22 126.45 58.24C126.43 58.26 126.4 58.27 126.37 58.27H124.44C124.44 58.27 124.4 58.29 124.4 58.32V60.8C124.4 60.8 124.39 60.86 124.37 60.88C124.35 60.9 124.32 60.91 124.29 60.91H123.24C123.24 60.91 123.18 60.9 123.16 60.88C123.14 60.86 123.13 60.83 123.13 60.8V54.72C123.13 54.72 123.14 54.66 123.16 54.64C123.18 54.62 123.21 54.61 123.24 54.61H127.39C127.39 54.61 127.44 54.62 127.47 54.64C127.49 54.66 127.5 54.69 127.5 54.72V55.59C127.5 55.59 127.49 55.65 127.47 55.67H127.46Z" fill="white"/>
<path id="Vector_15" d="M131.26 60.82L130.99 59.94C130.99 59.94 130.96 59.9 130.95 59.9H128.74C128.74 59.9 128.71 59.91 128.69 59.94L128.43 60.82C128.41 60.88 128.37 60.91 128.31 60.91H127.17C127.17 60.91 127.11 60.9 127.09 60.88C127.07 60.86 127.07 60.83 127.09 60.79L129.03 54.71C129.05 54.65 129.09 54.62 129.15 54.62H130.56C130.62 54.62 130.66 54.65 130.68 54.71L132.62 60.79C132.62 60.79 132.62 60.82 132.62 60.83C132.62 60.88 132.59 60.91 132.52 60.91H131.38C131.32 60.91 131.28 60.88 131.26 60.82ZM129.05 58.92H130.63C130.63 58.92 130.68 58.9 130.67 58.87L129.86 56.2C129.86 56.2 129.84 56.17 129.83 56.17C129.82 56.17 129.81 56.18 129.8 56.2L129.01 58.87C129.01 58.87 129.01 58.92 129.05 58.92Z" fill="white"/>
<path id="Vector_16" d="M133.36 60.88C133.36 60.88 133.33 60.83 133.33 60.8V54.72C133.33 54.72 133.34 54.66 133.36 54.64C133.38 54.62 133.41 54.61 133.44 54.61H134.49C134.49 54.61 134.55 54.62 134.57 54.64C134.59 54.66 134.6 54.69 134.6 54.72V59.78C134.6 59.78 134.61 59.82 134.64 59.82H137.58C137.58 59.82 137.63 59.83 137.66 59.85C137.68 59.87 137.69 59.9 137.69 59.93V60.8C137.69 60.8 137.68 60.86 137.66 60.88C137.64 60.9 137.61 60.91 137.58 60.91H133.43C133.43 60.91 133.37 60.9 133.35 60.88H133.36Z" fill="white"/>
<path id="Vector_17" d="M138.41 60.88C138.41 60.88 138.38 60.83 138.38 60.8V54.72C138.38 54.72 138.39 54.66 138.41 54.64C138.43 54.62 138.46 54.61 138.49 54.61H139.54C139.54 54.61 139.6 54.62 139.62 54.64C139.64 54.66 139.65 54.69 139.65 54.72V59.78C139.65 59.78 139.67 59.82 139.69 59.82H142.63C142.63 59.82 142.69 59.83 142.71 59.85C142.73 59.87 142.74 59.9 142.74 59.93V60.8C142.74 60.8 142.73 60.86 142.71 60.88C142.69 60.9 142.66 60.91 142.63 60.91H138.48C138.48 60.91 138.42 60.9 138.4 60.88H138.41Z" fill="white"/>
</g>
</g>
<g id="Group_6">
<g id="Group_7">
<path id="Vector_18" d="M12.68 80.35L41.78 95.14C43.92 96.23 46.46 96.21 48.58 95.09L76.58 80.37C79.02 79.09 80.54 76.56 80.54 73.81V15.01C80.54 10.19 76.63 6.28 71.81 6.28H17.36C12.54 6.28 8.63 10.19 8.63 15.01V73.74C8.63 76.53 10.2 79.08 12.68 80.34V80.35Z" fill="#EDEDED"/>
<path id="Vector_19" d="M44.59 9.67C44.94 9.67 45.28 9.67 45.63 9.76L44.59 11.76C43.03 11.67 41.64 12.89 41.55 14.45C41.46 16.01 42.68 17.4 44.24 17.49H44.59C45.28 17.49 45.98 17.23 46.5 16.8L47.63 18.71C46.76 19.32 45.72 19.67 44.59 19.67C41.81 19.76 39.46 17.67 39.38 14.89C39.29 12.11 41.38 9.76 44.16 9.68H44.59V9.67ZM48.15 13.93L49.45 16.1L48.15 18.18L46.93 16.1H44.41L45.71 13.93H48.14H48.15ZM46.07 13.15C46.07 12.8 46.16 12.46 46.33 12.19C46.5 11.92 46.85 11.67 47.11 11.5L47.28 11.41C47.63 11.24 47.71 11.15 47.71 10.98C47.71 10.81 47.45 10.63 47.28 10.63C46.93 10.63 46.67 10.8 46.5 11.15L46.07 10.72C46.16 10.55 46.33 10.37 46.5 10.2C46.76 10.03 47.02 10.03 47.28 10.03C47.54 10.03 47.89 10.12 48.06 10.29C48.23 10.46 48.41 10.72 48.41 10.98C48.41 11.41 48.15 11.76 47.63 11.94L47.37 12.11C47.11 12.28 46.94 12.37 46.85 12.63H48.41V13.24L46.06 13.15H46.07ZM44.59 24.01L52.84 19.32V6.28H36.25V19.22L44.59 24V24.01Z" fill="#F04E35"/>
</g>
<path id="Vector_20" d="M80.32 50.75H8.85998C6.71712 50.75 4.97998 52.4871 4.97998 54.63V61.03C4.97998 63.1729 6.71712 64.91 8.85998 64.91H80.32C82.4628 64.91 84.2 63.1729 84.2 61.03V54.63C84.2 52.4871 82.4628 50.75 80.32 50.75Z" fill="#F04E35"/>
<g id="Group_8">
<path id="Vector_21" d="M16.96 55.51C16.96 55.51 16.91 55.54 16.88 55.54H13.94C13.94 55.54 13.9 55.56 13.9 55.58V56.98C13.9 56.98 13.92 57.02 13.94 57.02H15.88C15.88 57.02 15.94 57.03 15.96 57.05C15.98 57.07 15.99 57.1 15.99 57.13V58C15.99 58 15.98 58.06 15.96 58.08C15.94 58.1 15.91 58.11 15.88 58.11H13.94C13.94 58.11 13.9 58.13 13.9 58.16V60.64C13.9 60.64 13.89 60.7 13.87 60.72C13.85 60.74 13.82 60.75 13.79 60.75H12.74C12.74 60.75 12.68 60.74 12.66 60.72C12.64 60.7 12.63 60.67 12.63 60.64V54.56C12.63 54.56 12.64 54.5 12.66 54.48C12.68 54.46 12.71 54.45 12.74 54.45H16.89C16.89 54.45 16.95 54.46 16.97 54.48C16.99 54.5 17 54.53 17 54.56V55.43C17 55.43 16.99 55.49 16.97 55.51H16.96Z" fill="white"/>
<path id="Vector_22" d="M20.04 56.26C20.35 56.4 20.58 56.58 20.76 56.81C20.93 57.04 21.02 57.31 21.02 57.59V60.64C21.02 60.64 21.01 60.7 20.99 60.72C20.97 60.74 20.94 60.75 20.91 60.75H19.86C19.86 60.75 19.8 60.74 19.78 60.72C19.76 60.7 19.75 60.67 19.75 60.64V60.34C19.75 60.34 19.75 60.31 19.73 60.3C19.72 60.3 19.71 60.3 19.69 60.32C19.44 60.65 19.03 60.81 18.48 60.81C18.01 60.81 17.63 60.7 17.35 60.47C17.06 60.24 16.92 59.91 16.92 59.46C16.92 59.01 17.08 58.64 17.41 58.38C17.73 58.13 18.2 58 18.8 58H19.72C19.72 58 19.76 57.98 19.76 57.96V57.76C19.76 57.56 19.7 57.41 19.58 57.3C19.46 57.19 19.28 57.13 19.04 57.13C18.85 57.13 18.7 57.16 18.58 57.23C18.46 57.3 18.38 57.39 18.34 57.51C18.32 57.58 18.28 57.61 18.22 57.6L17.13 57.46C17.06 57.45 17.03 57.42 17.03 57.38C17.05 57.13 17.15 56.9 17.33 56.7C17.51 56.5 17.74 56.34 18.03 56.22C18.32 56.11 18.65 56.05 19.01 56.05C19.4 56.05 19.75 56.12 20.05 56.25L20.04 56.26ZM19.47 59.68C19.65 59.54 19.74 59.37 19.74 59.15V58.83C19.74 58.83 19.72 58.79 19.7 58.79H19.05C18.78 58.79 18.57 58.84 18.42 58.94C18.27 59.04 18.19 59.19 18.19 59.37C18.19 59.53 18.25 59.66 18.36 59.75C18.47 59.84 18.63 59.89 18.82 59.89C19.08 59.89 19.3 59.82 19.48 59.68H19.47Z" fill="white"/>
<path id="Vector_23" d="M22.69 60.64C22.39 60.53 22.16 60.37 21.99 60.16C21.82 59.95 21.74 59.72 21.74 59.47V59.38C21.74 59.38 21.75 59.32 21.77 59.3C21.79 59.28 21.82 59.27 21.85 59.27H22.85C22.85 59.27 22.91 59.28 22.93 59.3C22.95 59.32 22.96 59.35 22.96 59.38C22.96 59.52 23.03 59.63 23.18 59.73C23.33 59.82 23.51 59.87 23.73 59.87C23.93 59.87 24.1 59.83 24.22 59.75C24.34 59.67 24.41 59.57 24.41 59.45C24.41 59.34 24.36 59.26 24.25 59.21C24.14 59.16 23.96 59.1 23.72 59.04C23.44 58.97 23.22 58.9 23.05 58.83C22.67 58.7 22.36 58.54 22.13 58.34C21.9 58.15 21.79 57.87 21.79 57.51C21.79 57.07 21.96 56.71 22.31 56.45C22.65 56.19 23.11 56.06 23.68 56.06C24.06 56.06 24.4 56.12 24.69 56.24C24.98 56.36 25.2 56.54 25.36 56.76C25.52 56.98 25.6 57.23 25.6 57.52C25.6 57.55 25.59 57.58 25.57 57.6C25.55 57.62 25.52 57.63 25.49 57.63H24.53C24.53 57.63 24.47 57.62 24.45 57.6C24.43 57.58 24.42 57.55 24.42 57.52C24.42 57.39 24.35 57.28 24.22 57.19C24.09 57.1 23.91 57.05 23.68 57.05C23.48 57.05 23.32 57.09 23.19 57.16C23.06 57.23 23 57.33 23 57.46C23 57.59 23.06 57.67 23.18 57.73C23.3 57.79 23.51 57.85 23.8 57.92C23.87 57.94 23.94 57.96 24.03 57.98C24.12 58 24.2 58.03 24.3 58.06C24.73 58.19 25.06 58.35 25.31 58.55C25.56 58.75 25.68 59.04 25.68 59.41C25.68 59.85 25.5 60.2 25.15 60.45C24.8 60.7 24.33 60.82 23.73 60.82C23.33 60.82 22.98 60.76 22.68 60.65L22.69 60.64Z" fill="white"/>
<path id="Vector_24" d="M29.03 57.11C29.03 57.11 28.98 57.14 28.95 57.14H28.09C28.09 57.14 28.05 57.16 28.05 57.18V59.09C28.05 59.29 28.09 59.43 28.17 59.53C28.25 59.63 28.38 59.67 28.56 59.67H28.86C28.86 59.67 28.92 59.68 28.94 59.7C28.96 59.72 28.97 59.75 28.97 59.78V60.63C28.97 60.7 28.93 60.73 28.86 60.75C28.61 60.76 28.43 60.77 28.32 60.77C27.82 60.77 27.45 60.69 27.2 60.52C26.95 60.36 26.83 60.04 26.82 59.59V57.18C26.82 57.18 26.81 57.14 26.78 57.14H26.27C26.27 57.14 26.21 57.13 26.19 57.11C26.17 57.09 26.16 57.06 26.16 57.03V56.23C26.16 56.23 26.17 56.17 26.19 56.15C26.21 56.13 26.24 56.12 26.27 56.12H26.78C26.78 56.12 26.82 56.1 26.82 56.08V55.01C26.82 55.01 26.83 54.95 26.85 54.93C26.87 54.91 26.9 54.9 26.93 54.9H27.94C27.94 54.9 28 54.91 28.02 54.93C28.04 54.95 28.05 54.98 28.05 55.01V56.08C28.05 56.08 28.07 56.12 28.09 56.12H28.95C28.95 56.12 29.01 56.13 29.03 56.15C29.05 56.17 29.06 56.2 29.06 56.23V57.03C29.06 57.03 29.05 57.09 29.03 57.11Z" fill="white"/>
<path id="Vector_25" d="M33.9 58.73C33.9 58.8 33.86 58.84 33.78 58.84H31C31 58.84 30.95 58.86 30.96 58.88C30.98 59 31.01 59.12 31.06 59.24C31.22 59.58 31.53 59.74 32.01 59.74C32.39 59.74 32.7 59.58 32.92 59.27C32.94 59.23 32.97 59.22 33 59.22C33.02 59.22 33.04 59.23 33.06 59.26L33.71 59.9C33.71 59.9 33.75 59.96 33.75 59.98C33.75 59.99 33.74 60.02 33.71 60.05C33.51 60.3 33.26 60.49 32.94 60.62C32.63 60.75 32.29 60.82 31.91 60.82C31.39 60.82 30.96 60.7 30.6 60.47C30.24 60.24 29.99 59.91 29.83 59.49C29.7 59.19 29.64 58.8 29.64 58.31C29.64 57.98 29.68 57.69 29.77 57.44C29.91 57.01 30.15 56.67 30.49 56.42C30.83 56.17 31.24 56.04 31.72 56.04C32.32 56.04 32.8 56.21 33.16 56.56C33.52 56.91 33.74 57.37 33.82 57.96C33.86 58.19 33.87 58.44 33.86 58.73H33.9ZM31.02 57.68C31 57.76 30.97 57.85 30.96 57.97C30.96 58 30.98 58.01 31.01 58.01H32.57C32.57 58.01 32.62 58 32.61 57.97C32.58 57.8 32.57 57.71 32.57 57.72C32.52 57.54 32.42 57.4 32.29 57.3C32.16 57.2 31.99 57.15 31.79 57.15C31.41 57.15 31.16 57.33 31.04 57.68H31.02Z" fill="white"/>
<path id="Vector_26" d="M35.41 60.64C35.11 60.53 34.88 60.37 34.71 60.16C34.54 59.95 34.46 59.72 34.46 59.47V59.38C34.46 59.38 34.47 59.32 34.49 59.3C34.51 59.28 34.54 59.27 34.57 59.27H35.57C35.57 59.27 35.63 59.28 35.65 59.3C35.67 59.32 35.68 59.35 35.68 59.38C35.68 59.52 35.75 59.63 35.9 59.73C36.05 59.82 36.23 59.87 36.45 59.87C36.65 59.87 36.82 59.83 36.94 59.75C37.06 59.67 37.13 59.57 37.13 59.45C37.13 59.34 37.08 59.26 36.97 59.21C36.86 59.16 36.68 59.1 36.44 59.04C36.16 58.97 35.94 58.9 35.77 58.83C35.39 58.7 35.08 58.54 34.85 58.34C34.62 58.15 34.51 57.87 34.51 57.51C34.51 57.07 34.68 56.71 35.03 56.45C35.37 56.19 35.83 56.06 36.4 56.06C36.78 56.06 37.12 56.12 37.41 56.24C37.7 56.36 37.92 56.54 38.08 56.76C38.24 56.98 38.32 57.23 38.32 57.52C38.32 57.55 38.31 57.58 38.29 57.6C38.27 57.62 38.24 57.63 38.21 57.63H37.25C37.25 57.63 37.19 57.62 37.17 57.6C37.15 57.58 37.14 57.55 37.14 57.52C37.14 57.39 37.07 57.28 36.94 57.19C36.81 57.1 36.63 57.05 36.4 57.05C36.2 57.05 36.04 57.09 35.91 57.16C35.78 57.23 35.72 57.33 35.72 57.46C35.72 57.59 35.78 57.67 35.9 57.73C36.02 57.79 36.23 57.85 36.52 57.92C36.59 57.94 36.66 57.96 36.75 57.98C36.84 58 36.92 58.03 37.02 58.06C37.45 58.19 37.78 58.35 38.03 58.55C38.28 58.75 38.4 59.04 38.4 59.41C38.4 59.85 38.22 60.2 37.87 60.45C37.52 60.7 37.05 60.82 36.45 60.82C36.05 60.82 35.7 60.76 35.4 60.65L35.41 60.64Z" fill="white"/>
<path id="Vector_27" d="M41.75 57.11C41.75 57.11 41.7 57.14 41.67 57.14H40.81C40.81 57.14 40.77 57.16 40.77 57.18V59.09C40.77 59.29 40.81 59.43 40.89 59.53C40.97 59.63 41.1 59.67 41.28 59.67H41.58C41.58 59.67 41.64 59.68 41.66 59.7C41.68 59.72 41.69 59.75 41.69 59.78V60.63C41.69 60.7 41.65 60.73 41.58 60.75C41.33 60.76 41.15 60.77 41.04 60.77C40.54 60.77 40.17 60.69 39.92 60.52C39.67 60.36 39.55 60.04 39.54 59.59V57.18C39.54 57.18 39.53 57.14 39.5 57.14H38.99C38.99 57.14 38.93 57.13 38.91 57.11C38.89 57.09 38.88 57.06 38.88 57.03V56.23C38.88 56.23 38.89 56.17 38.91 56.15C38.93 56.13 38.96 56.12 38.99 56.12H39.5C39.5 56.12 39.54 56.1 39.54 56.08V55.01C39.54 55.01 39.55 54.95 39.57 54.93C39.59 54.91 39.62 54.9 39.65 54.9H40.66C40.66 54.9 40.72 54.91 40.74 54.93C40.76 54.95 40.77 54.98 40.77 55.01V56.08C40.77 56.08 40.79 56.12 40.81 56.12H41.67C41.67 56.12 41.73 56.13 41.75 56.15C41.77 56.17 41.78 56.2 41.78 56.23V57.03C41.78 57.03 41.77 57.09 41.75 57.11Z" fill="white"/>
<path id="Vector_28" d="M45.4201 60.54C45.0701 60.35 44.7901 60.09 44.6001 59.76C44.4101 59.43 44.3101 59.04 44.3101 58.6V56.58C44.3101 56.14 44.4101 55.76 44.6001 55.42C44.8001 55.08 45.0701 54.82 45.4201 54.64C45.7701 54.46 46.1801 54.37 46.6401 54.37C47.1001 54.37 47.5001 54.46 47.8501 54.64C48.2001 54.82 48.4701 55.06 48.6701 55.37C48.8601 55.68 48.9601 56.02 48.9601 56.4V56.46C48.9601 56.46 48.9501 56.52 48.9301 56.54C48.9101 56.56 48.8801 56.57 48.8501 56.57H47.8001C47.8001 56.57 47.7401 56.56 47.7201 56.54C47.7001 56.52 47.6901 56.49 47.6901 56.46V56.43C47.6901 56.15 47.5901 55.92 47.4001 55.73C47.2101 55.54 46.9501 55.45 46.6401 55.45C46.3301 55.45 46.0601 55.55 45.8601 55.75C45.6601 55.95 45.5701 56.21 45.5701 56.54V58.63C45.5701 58.95 45.6701 59.22 45.8801 59.42C46.0901 59.62 46.3601 59.72 46.6801 59.72C47.0001 59.72 47.2401 59.64 47.4301 59.47C47.6201 59.3 47.7101 59.08 47.7101 58.78V58.38C47.7101 58.38 47.6901 58.34 47.6701 58.34H46.6601C46.6601 58.34 46.6001 58.33 46.5801 58.31C46.5601 58.29 46.5501 58.26 46.5501 58.23V57.4C46.5501 57.4 46.5601 57.34 46.5801 57.32C46.6001 57.3 46.6301 57.29 46.6601 57.29H48.8601C48.8601 57.29 48.9201 57.3 48.9401 57.32C48.9601 57.34 48.9701 57.37 48.9701 57.4V58.59C48.9701 59.05 48.8701 59.44 48.6801 59.78C48.4901 60.12 48.2201 60.37 47.8701 60.55C47.5201 60.73 47.1101 60.82 46.6501 60.82C46.1901 60.82 45.7801 60.73 45.4301 60.54H45.4201Z" fill="white"/>
<path id="Vector_29" d="M52.67 56.19C52.67 56.19 52.74 56.26 52.72 56.32L52.53 57.35C52.53 57.42 52.48 57.44 52.4 57.41C52.31 57.38 52.21 57.37 52.09 57.37C52.04 57.37 51.98 57.37 51.89 57.39C51.67 57.41 51.49 57.49 51.34 57.63C51.19 57.77 51.11 57.96 51.11 58.19V60.65C51.11 60.65 51.1 60.71 51.08 60.73C51.06 60.75 51.03 60.76 51 60.76H49.95C49.95 60.76 49.89 60.75 49.87 60.73C49.85 60.71 49.84 60.68 49.84 60.65V56.24C49.84 56.24 49.85 56.18 49.87 56.16C49.89 56.14 49.92 56.13 49.95 56.13H51C51 56.13 51.06 56.14 51.08 56.16C51.1 56.18 51.11 56.21 51.11 56.24V56.58C51.11 56.58 51.11 56.61 51.13 56.62C51.14 56.62 51.15 56.62 51.16 56.62C51.41 56.26 51.74 56.08 52.15 56.08C52.37 56.08 52.54 56.12 52.66 56.21L52.67 56.19Z" fill="white"/>
<path id="Vector_30" d="M53.9301 60.43C53.5701 60.17 53.3201 59.81 53.1901 59.35C53.1101 59.07 53.0601 58.76 53.0601 58.43C53.0601 58.08 53.1001 57.76 53.1901 57.48C53.3301 57.04 53.5801 56.69 53.9401 56.44C54.3001 56.19 54.7301 56.06 55.2401 56.06C55.7501 56.06 56.1501 56.18 56.5001 56.43C56.8501 56.68 57.0901 57.03 57.2401 57.47C57.3401 57.77 57.3801 58.09 57.3801 58.42C57.3801 58.75 57.3401 59.05 57.2501 59.33C57.1201 59.8 56.8701 60.17 56.5201 60.43C56.1601 60.7 55.7301 60.83 55.2301 60.83C54.7301 60.83 54.2901 60.7 53.9301 60.43ZM55.7301 59.56C55.8701 59.44 55.9701 59.27 56.0301 59.06C56.0801 58.87 56.1001 58.66 56.1001 58.43C56.1001 58.18 56.0801 57.96 56.0301 57.79C55.9601 57.59 55.8601 57.43 55.7201 57.31C55.5801 57.2 55.4101 57.14 55.2201 57.14C55.0301 57.14 54.8501 57.2 54.7101 57.31C54.5701 57.42 54.4801 57.58 54.4201 57.79C54.3701 57.93 54.3501 58.15 54.3501 58.43C54.3501 58.71 54.3701 58.91 54.4101 59.06C54.4701 59.27 54.5701 59.44 54.7101 59.56C54.8501 59.68 55.0201 59.74 55.2301 59.74C55.4401 59.74 55.6001 59.68 55.7301 59.56Z" fill="white"/>
<path id="Vector_31" d="M58.97 60.66L57.67 56.24V56.2C57.67 56.14 57.69 56.11 57.76 56.11H58.85C58.92 56.11 58.96 56.14 58.98 56.2L59.63 58.92C59.63 58.92 59.65 58.95 59.66 58.95C59.67 58.95 59.68 58.95 59.69 58.92L60.36 56.2C60.38 56.14 60.42 56.11 60.49 56.11H61.44C61.51 56.11 61.55 56.14 61.57 56.2L62.28 58.93C62.28 58.93 62.29 58.96 62.31 58.96C62.33 58.96 62.33 58.96 62.34 58.93L63.04 56.2C63.06 56.14 63.1 56.11 63.17 56.11L64.25 56.13C64.25 56.13 64.31 56.14 64.33 56.16C64.34 56.18 64.35 56.21 64.34 56.25L63.03 60.66C63.01 60.72 62.97 60.75 62.91 60.75H61.82C61.75 60.75 61.71 60.72 61.69 60.66L61 58.25C61 58.25 60.98 58.22 60.97 58.22C60.96 58.22 60.95 58.22 60.94 58.25L60.33 60.66C60.31 60.72 60.27 60.75 60.2 60.75H59.11C59.04 60.75 59 60.72 58.98 60.66H58.97Z" fill="white"/>
<path id="Vector_32" d="M65.17 55.4C65.03 55.27 64.97 55.1 64.97 54.89C64.97 54.68 65.04 54.51 65.17 54.38C65.3 54.25 65.47 54.18 65.68 54.18C65.89 54.18 66.06 54.25 66.19 54.38C66.32 54.51 66.39 54.68 66.39 54.89C66.39 55.1 66.32 55.26 66.19 55.4C66.06 55.54 65.89 55.6 65.68 55.6C65.47 55.6 65.31 55.53 65.17 55.4ZM65.06 60.72C65.06 60.72 65.03 60.67 65.03 60.64V56.22C65.03 56.22 65.04 56.16 65.06 56.14C65.08 56.12 65.11 56.11 65.14 56.11H66.19C66.19 56.11 66.25 56.12 66.27 56.14C66.29 56.16 66.3 56.19 66.3 56.22V60.64C66.3 60.64 66.29 60.7 66.27 60.72C66.25 60.74 66.22 60.75 66.19 60.75H65.14C65.14 60.75 65.08 60.74 65.06 60.72Z" fill="white"/>
<path id="Vector_33" d="M70.86 56.49C71.15 56.78 71.3 57.18 71.3 57.69V60.64C71.3 60.64 71.29 60.7 71.27 60.72C71.25 60.74 71.22 60.75 71.19 60.75H70.14C70.14 60.75 70.08 60.74 70.06 60.72C70.04 60.7 70.03 60.67 70.03 60.64V57.95C70.03 57.71 69.96 57.51 69.83 57.37C69.69 57.22 69.52 57.14 69.29 57.14C69.06 57.14 68.89 57.22 68.75 57.37C68.62 57.52 68.55 57.71 68.55 57.95V60.64C68.55 60.64 68.54 60.7 68.52 60.72C68.5 60.74 68.47 60.75 68.44 60.75H67.39C67.39 60.75 67.33 60.74 67.31 60.72C67.29 60.7 67.28 60.67 67.28 60.64V56.23C67.28 56.23 67.29 56.17 67.31 56.15C67.33 56.13 67.36 56.12 67.39 56.12H68.44C68.44 56.12 68.5 56.13 68.52 56.15C68.54 56.17 68.55 56.2 68.55 56.23V56.54C68.55 56.54 68.55 56.57 68.57 56.58C68.59 56.59 68.59 56.58 68.6 56.58C68.85 56.23 69.21 56.06 69.7 56.06C70.19 56.06 70.57 56.21 70.86 56.5V56.49Z" fill="white"/>
<path id="Vector_34" d="M75.07 56.16C75.07 56.16 75.12 56.13 75.15 56.13H76.2C76.2 56.13 76.26 56.14 76.28 56.16C76.3 56.18 76.31 56.21 76.31 56.24V60.34C76.31 61.13 76.08 61.69 75.63 62.02C75.18 62.35 74.59 62.52 73.88 62.52C73.67 62.52 73.44 62.5 73.18 62.48C73.12 62.48 73.09 62.44 73.09 62.36L73.13 61.43C73.13 61.35 73.17 61.32 73.26 61.33C73.48 61.37 73.67 61.38 73.85 61.38C74.23 61.38 74.53 61.3 74.74 61.13C74.95 60.96 75.05 60.69 75.05 60.32C75.05 60.3 75.05 60.29 75.03 60.29C75.02 60.29 75.01 60.29 74.99 60.3C74.76 60.55 74.43 60.67 73.99 60.67C73.6 60.67 73.24 60.58 72.91 60.39C72.58 60.2 72.35 59.9 72.21 59.48C72.12 59.2 72.08 58.85 72.08 58.41C72.08 57.94 72.13 57.56 72.24 57.27C72.37 56.9 72.58 56.61 72.88 56.39C73.18 56.17 73.53 56.06 73.92 56.06C74.38 56.06 74.74 56.2 74.98 56.47C74.99 56.48 75 56.49 75.02 56.48C75.04 56.47 75.04 56.47 75.04 56.45V56.23C75.04 56.23 75.05 56.17 75.07 56.15V56.16ZM75.04 58.41C75.04 58.22 75.04 58.08 75.02 57.98C75 57.88 74.99 57.78 74.96 57.69C74.91 57.53 74.82 57.4 74.69 57.3C74.56 57.2 74.41 57.15 74.22 57.15C74.03 57.15 73.89 57.2 73.76 57.3C73.63 57.4 73.54 57.53 73.48 57.69C73.4 57.87 73.35 58.11 73.35 58.42C73.35 58.76 73.39 59 73.46 59.14C73.51 59.3 73.61 59.43 73.74 59.53C73.88 59.63 74.04 59.68 74.22 59.68C74.4 59.68 74.57 59.63 74.7 59.53C74.83 59.43 74.91 59.3 74.96 59.15C75.01 58.97 75.03 58.72 75.03 58.41H75.04Z" fill="white"/>
</g>
<g id="Group_9">
<path id="Vector_35" d="M21.06 70.8C21.51 71.03 21.73 71.41 21.73 71.95C21.73 72.41 21.58 72.75 21.26 72.98C20.94 73.21 20.54 73.33 20.04 73.33H18.21C18.21 73.33 18.17 73.33 18.15 73.31C18.13 73.29 18.13 73.27 18.13 73.25V68.49C18.13 68.49 18.13 68.45 18.15 68.43C18.17 68.41 18.19 68.41 18.21 68.41H19.98C21.09 68.41 21.65 68.86 21.65 69.76C21.65 70.23 21.45 70.57 21.05 70.77C21.02 70.78 21.02 70.8 21.05 70.81L21.06 70.8ZM19.13 69.28V70.38C19.13 70.38 19.14 70.42 19.16 70.42H19.98C20.2 70.42 20.37 70.37 20.49 70.27C20.61 70.17 20.67 70.03 20.67 69.85C20.67 69.67 20.61 69.52 20.49 69.42C20.37 69.31 20.2 69.26 19.98 69.26H19.16C19.16 69.26 19.13 69.27 19.13 69.3V69.28ZM20.55 72.3C20.67 72.19 20.73 72.04 20.73 71.85C20.73 71.66 20.67 71.51 20.55 71.4C20.43 71.29 20.26 71.23 20.04 71.23H19.17C19.17 71.23 19.14 71.24 19.14 71.26V72.43C19.14 72.43 19.15 72.47 19.17 72.47H20.05C20.27 72.47 20.44 72.41 20.56 72.3H20.55Z" fill="#231F20"/>
<path id="Vector_36" d="M25.91 69.23C25.91 69.23 25.87 69.25 25.85 69.25H23.54C23.54 69.25 23.51 69.26 23.51 69.29V70.38C23.51 70.38 23.52 70.42 23.54 70.42H25.06C25.06 70.42 25.1 70.42 25.12 70.44C25.14 70.46 25.14 70.48 25.14 70.5V71.18C25.14 71.18 25.14 71.22 25.12 71.24C25.1 71.26 25.08 71.26 25.06 71.26H23.54C23.54 71.26 23.51 71.27 23.51 71.3V72.44C23.51 72.44 23.52 72.48 23.54 72.48H25.85C25.85 72.48 25.89 72.48 25.91 72.5C25.93 72.52 25.93 72.54 25.93 72.56V73.24C25.93 73.24 25.93 73.28 25.91 73.3C25.89 73.32 25.87 73.32 25.85 73.32H22.59C22.59 73.32 22.55 73.32 22.53 73.3C22.51 73.28 22.51 73.26 22.51 73.24V68.48C22.51 68.48 22.51 68.44 22.53 68.42C22.55 68.4 22.57 68.4 22.59 68.4H25.85C25.85 68.4 25.89 68.4 25.91 68.42C25.93 68.44 25.93 68.46 25.93 68.48V69.16C25.93 69.16 25.93 69.2 25.91 69.22V69.23Z" fill="#231F20"/>
<path id="Vector_37" d="M27.33 73.21C27.05 73.09 26.83 72.92 26.68 72.7C26.53 72.48 26.45 72.22 26.45 71.92V71.76C26.45 71.76 26.4499 71.72 26.4699 71.7C26.4899 71.68 26.51 71.68 26.53 71.68H27.33C27.33 71.68 27.3699 71.68 27.3899 71.7C27.4099 71.72 27.41 71.74 27.41 71.76V71.87C27.41 72.06 27.5 72.22 27.67 72.35C27.84 72.48 28.08 72.54 28.37 72.54C28.62 72.54 28.8 72.49 28.93 72.38C29.06 72.27 29.11 72.14 29.11 71.99C29.11 71.88 29.07 71.78 29 71.7C28.92 71.62 28.82 71.55 28.69 71.5C28.56 71.44 28.36 71.36 28.07 71.26C27.76 71.15 27.49 71.04 27.27 70.93C27.05 70.82 26.8699 70.66 26.7199 70.47C26.5699 70.27 26.5 70.03 26.5 69.75C26.5 69.47 26.5699 69.22 26.7199 69.01C26.8699 68.8 27.07 68.64 27.33 68.52C27.59 68.41 27.8899 68.35 28.2199 68.35C28.5799 68.35 28.9 68.41 29.17 68.54C29.45 68.67 29.67 68.84 29.83 69.07C29.99 69.3 30.07 69.56 30.07 69.86V69.97C30.07 69.97 30.0699 70.01 30.0499 70.03C30.0299 70.05 30.01 70.05 29.99 70.05H29.18C29.18 70.05 29.14 70.05 29.12 70.03C29.1 70.01 29.1 69.99 29.1 69.97V69.91C29.1 69.71 29.02 69.54 28.86 69.41C28.7 69.27 28.48 69.2 28.19 69.2C27.97 69.2 27.8 69.25 27.67 69.34C27.55 69.43 27.4799 69.56 27.4799 69.73C27.4799 69.85 27.52 69.95 27.59 70.03C27.66 70.11 27.77 70.18 27.91 70.24C28.05 70.3 28.28 70.39 28.58 70.5C28.91 70.62 29.18 70.73 29.37 70.82C29.56 70.91 29.7299 71.05 29.8799 71.24C30.0299 71.43 30.11 71.67 30.11 71.96C30.11 72.4 29.95 72.75 29.62 73.01C29.3 73.27 28.8599 73.39 28.2999 73.39C27.9199 73.39 27.5899 73.33 27.3099 73.21H27.33Z" fill="#231F20"/>
<path id="Vector_38" d="M34.22 68.43C34.22 68.43 34.24 68.47 34.24 68.49V69.18C34.24 69.18 34.24 69.22 34.22 69.24C34.2 69.26 34.18 69.26 34.16 69.26H32.9C32.9 69.26 32.86 69.27 32.86 69.3V73.25C32.86 73.25 32.86 73.29 32.84 73.31C32.82 73.33 32.8 73.33 32.78 73.33H31.96C31.96 73.33 31.92 73.33 31.9 73.31C31.88 73.29 31.88 73.27 31.88 73.25V69.3C31.88 69.3 31.87 69.26 31.84 69.26H30.61C30.61 69.26 30.57 69.26 30.55 69.24C30.53 69.22 30.53 69.2 30.53 69.18V68.49C30.53 68.49 30.53 68.45 30.55 68.43C30.57 68.41 30.59 68.41 30.61 68.41H34.16C34.16 68.41 34.2 68.41 34.22 68.43Z" fill="#231F20"/>
<path id="Vector_39" d="M37 73.21C36.72 73.09 36.5 72.92 36.35 72.7C36.2 72.48 36.12 72.22 36.12 71.92V71.76C36.12 71.76 36.12 71.72 36.14 71.7C36.16 71.68 36.18 71.68 36.2 71.68H37C37 71.68 37.04 71.68 37.06 71.7C37.08 71.72 37.08 71.74 37.08 71.76V71.87C37.08 72.06 37.17 72.22 37.34 72.35C37.51 72.48 37.75 72.54 38.04 72.54C38.29 72.54 38.47 72.49 38.6 72.38C38.73 72.27 38.78 72.14 38.78 71.99C38.78 71.88 38.74 71.78 38.67 71.7C38.59 71.62 38.49 71.55 38.36 71.5C38.23 71.44 38.03 71.36 37.74 71.26C37.43 71.15 37.16 71.04 36.94 70.93C36.72 70.82 36.54 70.66 36.39 70.47C36.24 70.27 36.17 70.03 36.17 69.75C36.17 69.47 36.24 69.22 36.39 69.01C36.54 68.8 36.74 68.64 37 68.52C37.26 68.41 37.56 68.35 37.89 68.35C38.25 68.35 38.57 68.41 38.84 68.54C39.12 68.67 39.34 68.84 39.5 69.07C39.66 69.3 39.74 69.56 39.74 69.86V69.97C39.74 69.97 39.74 70.01 39.72 70.03C39.7 70.05 39.68 70.05 39.66 70.05H38.85C38.85 70.05 38.81 70.05 38.79 70.03C38.77 70.01 38.77 69.99 38.77 69.97V69.91C38.77 69.71 38.69 69.54 38.53 69.41C38.37 69.27 38.15 69.2 37.86 69.2C37.64 69.2 37.47 69.25 37.34 69.34C37.22 69.43 37.15 69.56 37.15 69.73C37.15 69.85 37.19 69.95 37.26 70.03C37.33 70.11 37.44 70.18 37.58 70.24C37.72 70.3 37.95 70.39 38.25 70.5C38.58 70.62 38.85 70.73 39.04 70.82C39.23 70.91 39.4 71.05 39.55 71.24C39.7 71.43 39.78 71.67 39.78 71.96C39.78 72.4 39.62 72.75 39.29 73.01C38.97 73.27 38.53 73.39 37.97 73.39C37.59 73.39 37.26 73.33 36.98 73.21H37Z" fill="#231F20"/>
<path id="Vector_40" d="M41.27 73.19C40.99 73.04 40.77 72.83 40.62 72.56C40.46 72.29 40.39 71.98 40.39 71.63V70.12C40.39 69.77 40.47 69.46 40.62 69.2C40.77 68.93 40.99 68.72 41.27 68.58C41.55 68.44 41.87 68.36 42.24 68.36C42.61 68.36 42.94 68.43 43.22 68.58C43.5 68.73 43.72 68.94 43.87 69.2C44.02 69.47 44.1 69.78 44.1 70.12V71.63C44.1 71.98 44.02 72.29 43.87 72.57C43.71 72.84 43.5 73.05 43.22 73.2C42.94 73.35 42.62 73.42 42.24 73.42C41.86 73.42 41.55 73.34 41.27 73.19ZM42.87 72.32C43.03 72.16 43.11 71.94 43.11 71.66V70.11C43.11 69.84 43.03 69.62 42.87 69.45C42.71 69.28 42.5 69.2 42.24 69.2C41.98 69.2 41.77 69.28 41.62 69.45C41.46 69.62 41.38 69.84 41.38 70.11V71.66C41.38 71.93 41.46 72.15 41.62 72.32C41.78 72.48 41.99 72.57 42.24 72.57C42.49 72.57 42.71 72.49 42.87 72.32Z" fill="#231F20"/>
<path id="Vector_41" d="M48.26 69.23C48.26 69.23 48.22 69.25 48.2 69.25H45.9C45.9 69.25 45.87 69.26 45.87 69.29V70.38C45.87 70.38 45.88 70.42 45.9 70.42H47.42C47.42 70.42 47.46 70.42 47.48 70.44C47.5 70.46 47.5 70.48 47.5 70.5V71.18C47.5 71.18 47.5 71.22 47.48 71.24C47.46 71.26 47.44 71.26 47.42 71.26H45.9C45.9 71.26 45.87 71.27 45.87 71.3V73.25C45.87 73.25 45.87 73.29 45.85 73.31C45.83 73.33 45.81 73.33 45.79 73.33H44.97C44.97 73.33 44.93 73.33 44.91 73.31C44.89 73.29 44.89 73.27 44.89 73.25V68.49C44.89 68.49 44.89 68.45 44.91 68.43C44.93 68.41 44.95 68.41 44.97 68.41H48.22C48.22 68.41 48.26 68.41 48.28 68.43C48.3 68.45 48.3 68.47 48.3 68.49V69.17C48.3 69.17 48.3 69.21 48.28 69.23H48.26Z" fill="#231F20"/>
<path id="Vector_42" d="M52.27 68.43C52.27 68.43 52.29 68.47 52.29 68.49V69.18C52.29 69.18 52.29 69.22 52.27 69.24C52.25 69.26 52.23 69.26 52.21 69.26H50.95C50.95 69.26 50.91 69.27 50.91 69.3V73.25C50.91 73.25 50.91 73.29 50.89 73.31C50.87 73.33 50.85 73.33 50.83 73.33H50.01C50.01 73.33 49.97 73.33 49.95 73.31C49.93 73.29 49.93 73.27 49.93 73.25V69.3C49.93 69.3 49.92 69.26 49.89 69.26H48.66C48.66 69.26 48.62 69.26 48.6 69.24C48.58 69.22 48.58 69.2 48.58 69.18V68.49C48.58 68.49 48.58 68.45 48.6 68.43C48.62 68.41 48.64 68.41 48.66 68.41H52.21C52.21 68.41 52.25 68.41 52.27 68.43Z" fill="#231F20"/>
<path id="Vector_43" d="M53.9301 73.26L52.6801 68.49V68.46C52.6801 68.46 52.7001 68.4 52.7501 68.4H53.6201C53.6201 68.4 53.7001 68.42 53.7101 68.47L54.3801 71.34C54.3801 71.34 54.3901 71.37 54.4001 71.37C54.4101 71.37 54.4201 71.37 54.4201 71.34L55.0701 68.48C55.0801 68.43 55.1101 68.4 55.1601 68.4H56.0101C56.0601 68.4 56.0901 68.42 56.1101 68.47L56.8101 71.34C56.8101 71.34 56.8201 71.36 56.8301 71.36C56.8301 71.36 56.8501 71.36 56.8501 71.34L57.5001 68.48C57.5101 68.43 57.5401 68.4 57.5901 68.4H58.4201C58.4901 68.4 58.5101 68.43 58.5001 68.49L57.3401 73.26C57.3401 73.26 57.2901 73.33 57.2401 73.33H56.4001C56.4001 73.33 56.3201 73.31 56.3101 73.26L55.5901 70.21C55.5901 70.21 55.5801 70.18 55.5701 70.18C55.5601 70.18 55.5501 70.18 55.5501 70.21L54.8801 73.25C54.8801 73.3 54.8401 73.33 54.7901 73.33H54.0101C53.9601 73.33 53.9301 73.31 53.9101 73.26H53.9301Z" fill="#231F20"/>
<path id="Vector_44" d="M61.45 73.26L61.24 72.57C61.24 72.57 61.22 72.54 61.2 72.54H59.47C59.47 72.54 59.44 72.54 59.43 72.57L59.23 73.26C59.23 73.26 59.19 73.33 59.14 73.33H58.25C58.25 73.33 58.2 73.33 58.19 73.31C58.18 73.29 58.17 73.27 58.19 73.24L59.71 68.48C59.71 68.48 59.75 68.41 59.8 68.41H60.91C60.91 68.41 60.99 68.43 61 68.48L62.52 73.24C62.52 73.24 62.52 73.26 62.52 73.28C62.52 73.32 62.49 73.34 62.44 73.34H61.54C61.54 73.34 61.46 73.32 61.45 73.27V73.26ZM59.72 71.77H60.96C60.96 71.77 61 71.76 60.99 71.73L60.36 69.64C60.36 69.64 60.35 69.61 60.34 69.62C60.34 69.62 60.32 69.63 60.32 69.64L59.7 71.73C59.7 71.73 59.7 71.77 59.73 71.77H59.72Z" fill="#231F20"/>
<path id="Vector_45" d="M65.74 73.27L64.86 71.32C64.86 71.32 64.84 71.29 64.82 71.29H64.16C64.16 71.29 64.13 71.3 64.13 71.33V73.25C64.13 73.25 64.13 73.29 64.11 73.31C64.09 73.33 64.07 73.33 64.05 73.33H63.23C63.23 73.33 63.19 73.33 63.17 73.31C63.15 73.29 63.15 73.27 63.15 73.25V68.49C63.15 68.49 63.15 68.45 63.17 68.43C63.19 68.41 63.21 68.41 63.23 68.41H65.25C65.55 68.41 65.81 68.47 66.04 68.59C66.27 68.71 66.44 68.89 66.57 69.11C66.69 69.34 66.76 69.6 66.76 69.89C66.76 70.21 66.68 70.48 66.52 70.71C66.36 70.94 66.14 71.1 65.85 71.19C65.83 71.19 65.82 71.22 65.83 71.24L66.79 73.23C66.79 73.23 66.8 73.26 66.8 73.27C66.8 73.31 66.77 73.33 66.72 73.33H65.85C65.85 73.33 65.77 73.31 65.75 73.27H65.74ZM64.13 69.29V70.49C64.13 70.49 64.14 70.53 64.16 70.53H65.08C65.28 70.53 65.44 70.47 65.56 70.35C65.68 70.23 65.75 70.08 65.75 69.89C65.75 69.7 65.69 69.55 65.56 69.43C65.44 69.31 65.27 69.25 65.08 69.25H64.16C64.16 69.25 64.13 69.26 64.13 69.29Z" fill="#231F20"/>
<path id="Vector_46" d="M70.86 69.23C70.86 69.23 70.82 69.25 70.8 69.25H68.49C68.49 69.25 68.46 69.26 68.46 69.29V70.38C68.46 70.38 68.47 70.42 68.49 70.42H70.01C70.01 70.42 70.05 70.42 70.07 70.44C70.09 70.46 70.09 70.48 70.09 70.5V71.18C70.09 71.18 70.09 71.22 70.07 71.24C70.05 71.26 70.03 71.26 70.01 71.26H68.49C68.49 71.26 68.46 71.27 68.46 71.3V72.44C68.46 72.44 68.47 72.48 68.49 72.48H70.8C70.8 72.48 70.84 72.48 70.86 72.5C70.88 72.52 70.88 72.54 70.88 72.56V73.24C70.88 73.24 70.88 73.28 70.86 73.3C70.84 73.32 70.82 73.32 70.8 73.32H67.54C67.54 73.32 67.5 73.32 67.48 73.3C67.46 73.28 67.46 73.26 67.46 73.24V68.48C67.46 68.48 67.46 68.44 67.48 68.42C67.5 68.4 67.52 68.4 67.54 68.4H70.8C70.8 68.4 70.84 68.4 70.86 68.42C70.88 68.44 70.88 68.46 70.88 68.48V69.16C70.88 69.16 70.88 69.2 70.86 69.22V69.23Z" fill="#231F20"/>
</g>
<path id="Vector_47" d="M27.3499 34.33C27.3499 34.33 27.4099 34.41 27.4099 34.47V36.04C27.4099 36.09 27.3899 36.14 27.3499 36.18C27.3099 36.22 27.2699 36.24 27.2099 36.24H24.3499C24.2999 36.24 24.2699 36.27 24.2699 36.32V45.3C24.2699 45.35 24.2499 45.4 24.2099 45.44C24.1699 45.48 24.1299 45.5 24.0699 45.5H22.1999C22.1499 45.5 22.0999 45.48 22.0599 45.44C22.0199 45.4 21.9999 45.36 21.9999 45.3V36.32C21.9999 36.27 21.9699 36.24 21.9199 36.24H19.1399C19.0899 36.24 19.0399 36.22 18.9999 36.18C18.9599 36.14 18.9399 36.1 18.9399 36.04V34.47C18.9399 34.42 18.9599 34.37 18.9999 34.33C19.0399 34.29 19.0799 34.27 19.1399 34.27H27.1999C27.2499 34.27 27.2999 34.29 27.3399 34.33H27.3499Z" fill="#010101"/>
<path id="Vector_48" d="M28.52 44.89C27.88 44.42 27.44 43.78 27.21 42.97C27.06 42.47 26.99 41.93 26.99 41.34C26.99 40.71 27.06 40.15 27.21 39.64C27.46 38.85 27.9 38.23 28.54 37.78C29.18 37.33 29.95 37.11 30.84 37.11C31.73 37.11 32.46 37.33 33.08 37.77C33.7 38.21 34.14 38.83 34.39 39.62C34.56 40.15 34.65 40.71 34.65 41.3C34.65 41.89 34.58 42.41 34.43 42.92C34.2 43.75 33.76 44.41 33.13 44.88C32.5 45.35 31.73 45.59 30.83 45.59C29.93 45.59 29.17 45.36 28.53 44.89H28.52ZM31.72 43.34C31.97 43.13 32.14 42.83 32.25 42.46C32.33 42.12 32.38 41.75 32.38 41.34C32.38 40.89 32.34 40.51 32.25 40.2C32.13 39.84 31.95 39.55 31.71 39.35C31.46 39.15 31.17 39.05 30.81 39.05C30.45 39.05 30.15 39.15 29.91 39.35C29.67 39.55 29.5 39.84 29.39 40.2C29.3 40.46 29.26 40.83 29.26 41.34C29.26 41.85 29.3 42.19 29.37 42.46C29.48 42.83 29.66 43.13 29.91 43.34C30.16 43.55 30.47 43.66 30.83 43.66C31.19 43.66 31.48 43.55 31.73 43.34H31.72Z" fill="#010101"/>
<path id="Vector_49" d="M43.58 41.37C43.58 42.11 43.48 42.77 43.28 43.37C43.03 44.05 42.65 44.59 42.12 44.99C41.59 45.39 40.94 45.59 40.16 45.59C39.38 45.59 38.79 45.32 38.37 44.79C38.35 44.76 38.33 44.75 38.31 44.76C38.29 44.77 38.28 44.79 38.28 44.82V48.24C38.28 48.29 38.26 48.34 38.22 48.38C38.18 48.42 38.14 48.44 38.08 48.44H36.21C36.16 48.44 36.11 48.42 36.07 48.38C36.03 48.34 36.01 48.3 36.01 48.24V37.42C36.01 37.37 36.03 37.32 36.07 37.28C36.11 37.24 36.15 37.22 36.21 37.22H38.08C38.13 37.22 38.18 37.24 38.22 37.28C38.26 37.32 38.28 37.36 38.28 37.42V37.95C38.28 37.95 38.29 38 38.31 38.01C38.33 38.01 38.35 38.01 38.37 37.99C38.82 37.4 39.44 37.11 40.23 37.11C40.97 37.11 41.6 37.32 42.14 37.73C42.68 38.14 43.07 38.71 43.3 39.45C43.49 39.99 43.59 40.63 43.59 41.37H43.58ZM41.24 41.34C41.24 40.67 41.13 40.13 40.9 39.74C40.65 39.28 40.26 39.05 39.72 39.05C39.23 39.05 38.86 39.28 38.62 39.74C38.4 40.12 38.28 40.66 38.28 41.36C38.28 42.06 38.4 42.63 38.63 43.02C38.88 43.45 39.24 43.66 39.72 43.66C40.2 43.66 40.57 43.45 40.84 43.04C41.11 42.63 41.24 42.06 41.24 41.34Z" fill="#010101"/>
<path id="Vector_50" d="M49.7299 34.27H51.6699C51.7199 34.27 51.7699 34.29 51.8099 34.33C51.8499 34.37 51.8699 34.41 51.8699 34.47V45.29C51.8699 45.34 51.8499 45.39 51.8099 45.43C51.7699 45.47 51.7299 45.49 51.6699 45.49H49.7999C49.7499 45.49 49.6999 45.47 49.6599 45.43C49.6199 45.39 49.5999 45.35 49.5999 45.29V36.52C49.5999 36.52 49.5899 36.48 49.5699 36.46C49.5499 36.44 49.5299 36.43 49.5099 36.44L47.9299 36.87L47.8699 36.89C47.7699 36.89 47.7299 36.83 47.7299 36.71L47.6799 35.33C47.6799 35.22 47.7299 35.15 47.8199 35.11L49.4999 34.33C49.5499 34.3 49.6299 34.28 49.7399 34.28L49.7299 34.27Z" fill="#010101"/>
<path id="Vector_51" d="M54.35 44.66C53.67 44 53.33 43.11 53.33 41.98V37.76C53.33 36.65 53.67 35.77 54.35 35.12C55.03 34.47 55.96 34.14 57.13 34.14C58.3 34.14 59.23 34.47 59.92 35.12C60.61 35.77 60.95 36.65 60.95 37.76V41.98C60.95 43.11 60.61 44 59.92 44.66C59.23 45.32 58.3 45.64 57.13 45.64C55.96 45.64 55.03 45.31 54.35 44.66ZM58.28 43.27C58.56 42.98 58.7 42.58 58.7 42.09V37.69C58.7 37.2 58.56 36.81 58.28 36.51C58 36.22 57.62 36.07 57.14 36.07C56.66 36.07 56.29 36.22 56.01 36.51C55.73 36.8 55.59 37.2 55.59 37.69V42.09C55.59 42.58 55.73 42.97 56.01 43.27C56.29 43.56 56.67 43.71 57.14 43.71C57.61 43.71 58 43.56 58.28 43.27Z" fill="#010101"/>
<path id="Vector_52" d="M63.31 44.66C62.63 44 62.29 43.11 62.29 41.98V37.76C62.29 36.65 62.63 35.77 63.31 35.12C63.99 34.47 64.92 34.14 66.09 34.14C67.26 34.14 68.19 34.47 68.88 35.12C69.57 35.77 69.91 36.65 69.91 37.76V41.98C69.91 43.11 69.57 44 68.88 44.66C68.19 45.32 67.26 45.64 66.09 45.64C64.92 45.64 63.99 45.31 63.31 44.66ZM67.24 43.27C67.52 42.98 67.66 42.58 67.66 42.09V37.69C67.66 37.2 67.52 36.81 67.24 36.51C66.96 36.22 66.58 36.07 66.1 36.07C65.62 36.07 65.25 36.22 64.97 36.51C64.69 36.8 64.55 37.2 64.55 37.69V42.09C64.55 42.58 64.69 42.97 64.97 43.27C65.25 43.56 65.63 43.71 66.1 43.71C66.57 43.71 66.96 43.56 67.24 43.27Z" fill="#010101"/>
<path id="Vector_53" d="M35.13 82.94C35.13 82.94 35.15 82.96 35.18 82.96H38.25C38.25 82.96 38.32 82.97 38.35 83C38.38 83.03 38.39 83.06 38.39 83.1V84.2C38.39 84.2 38.38 84.27 38.35 84.3C38.32 84.33 38.29 84.34 38.25 84.34H33.16C33.16 84.34 33.09 84.33 33.06 84.3C33.03 84.27 33.02 84.24 33.02 84.2V83.16C33.02 83.09 33.04 83.04 33.09 82.99C33.46 82.63 33.84 82.23 34.22 81.81C34.6 81.38 34.85 81.12 34.94 81.01C35.15 80.76 35.37 80.52 35.59 80.3C36.28 79.54 36.62 78.97 36.62 78.6C36.62 78.34 36.53 78.12 36.34 77.95C36.15 77.78 35.91 77.7 35.6 77.7C35.29 77.7 35.05 77.78 34.86 77.95C34.67 78.12 34.58 78.34 34.58 78.62V78.9C34.58 78.9 34.57 78.97 34.54 79C34.51 79.03 34.48 79.04 34.44 79.04H33.1C33.1 79.04 33.03 79.03 33 79C32.97 78.97 32.96 78.94 32.96 78.9V78.37C32.98 77.96 33.11 77.6 33.34 77.29C33.57 76.98 33.89 76.74 34.27 76.57C34.66 76.4 35.09 76.32 35.58 76.32C36.12 76.32 36.58 76.42 36.98 76.62C37.38 76.82 37.68 77.09 37.9 77.43C38.12 77.77 38.22 78.15 38.22 78.56C38.22 78.88 38.14 79.2 37.98 79.53C37.82 79.86 37.58 80.22 37.27 80.6C37.04 80.89 36.78 81.18 36.51 81.47C36.24 81.76 35.83 82.17 35.3 82.71L35.13 82.88C35.13 82.88 35.11 82.91 35.12 82.93L35.13 82.94Z" fill="#010101"/>
<path id="Vector_54" d="M39.97 83.76C39.49 83.3 39.25 82.66 39.25 81.86V78.87C39.25 78.09 39.49 77.46 39.97 77C40.45 76.54 41.11 76.31 41.94 76.31C42.77 76.31 43.43 76.54 43.91 77C44.4 77.46 44.64 78.08 44.64 78.87V81.86C44.64 82.66 44.4 83.29 43.91 83.76C43.42 84.23 42.77 84.46 41.94 84.46C41.11 84.46 40.45 84.23 39.97 83.76ZM42.75 82.78C42.95 82.57 43.05 82.3 43.05 81.95V78.84C43.05 78.49 42.95 78.22 42.75 78.01C42.55 77.8 42.28 77.7 41.94 77.7C41.6 77.7 41.34 77.8 41.14 78.01C40.94 78.22 40.84 78.49 40.84 78.84V81.95C40.84 82.3 40.94 82.57 41.14 82.78C41.34 82.99 41.61 83.09 41.94 83.09C42.27 83.09 42.55 82.99 42.75 82.78Z" fill="#010101"/>
<path id="Vector_55" d="M47.69 82.94C47.69 82.94 47.71 82.96 47.74 82.96H50.81C50.81 82.96 50.88 82.97 50.91 83C50.94 83.03 50.95 83.06 50.95 83.1V84.2C50.95 84.2 50.94 84.27 50.91 84.3C50.88 84.33 50.85 84.34 50.81 84.34H45.72C45.72 84.34 45.65 84.33 45.62 84.3C45.59 84.27 45.58 84.24 45.58 84.2V83.16C45.58 83.09 45.6 83.04 45.65 82.99C46.02 82.63 46.4 82.23 46.78 81.81C47.16 81.38 47.41 81.12 47.5 81.01C47.71 80.76 47.93 80.52 48.15 80.3C48.84 79.54 49.18 78.97 49.18 78.6C49.18 78.34 49.09 78.12 48.9 77.95C48.71 77.78 48.47 77.7 48.16 77.7C47.85 77.7 47.61 77.78 47.42 77.95C47.23 78.12 47.14 78.34 47.14 78.62V78.9C47.14 78.9 47.13 78.97 47.1 79C47.07 79.03 47.04 79.04 47 79.04H45.66C45.66 79.04 45.59 79.03 45.56 79C45.53 78.97 45.52 78.94 45.52 78.9V78.37C45.54 77.96 45.67 77.6 45.9 77.29C46.13 76.98 46.45 76.74 46.83 76.57C47.22 76.4 47.65 76.32 48.14 76.32C48.68 76.32 49.14 76.42 49.54 76.62C49.94 76.82 50.24 77.09 50.46 77.43C50.68 77.77 50.78 78.15 50.78 78.56C50.78 78.88 50.7 79.2 50.54 79.53C50.38 79.86 50.14 80.22 49.83 80.6C49.6 80.89 49.34 81.18 49.07 81.47C48.8 81.76 48.39 82.17 47.86 82.71L47.69 82.88C47.69 82.88 47.67 82.91 47.68 82.93L47.69 82.94Z" fill="#010101"/>
<path id="Vector_56" d="M56.75 81.76C56.75 82.17 56.68 82.54 56.55 82.89C56.37 83.37 56.07 83.75 55.64 84.02C55.21 84.29 54.71 84.43 54.13 84.43C53.55 84.43 53.05 84.29 52.62 84C52.19 83.71 51.87 83.32 51.69 82.83C51.58 82.54 51.52 82.22 51.51 81.88C51.51 81.79 51.56 81.74 51.65 81.74H52.99C53.08 81.74 53.13 81.79 53.13 81.88C53.16 82.13 53.2 82.31 53.25 82.43C53.32 82.63 53.43 82.78 53.58 82.89C53.73 83 53.92 83.05 54.13 83.05C54.55 83.05 54.84 82.87 55 82.5C55.11 82.27 55.16 82.01 55.16 81.71C55.16 81.36 55.1 81.07 54.99 80.84C54.82 80.49 54.53 80.31 54.12 80.31C54.04 80.31 53.95 80.33 53.86 80.38C53.77 80.43 53.66 80.5 53.53 80.59C53.5 80.61 53.47 80.62 53.44 80.62C53.39 80.62 53.36 80.6 53.34 80.55L52.67 79.61C52.67 79.61 52.65 79.56 52.65 79.53C52.65 79.48 52.66 79.45 52.7 79.42L54.5 77.85C54.5 77.85 54.52 77.82 54.52 77.8C54.52 77.78 54.5 77.78 54.48 77.78H51.82C51.82 77.78 51.75 77.77 51.72 77.74C51.69 77.71 51.68 77.68 51.68 77.64V76.54C51.68 76.54 51.69 76.47 51.72 76.44C51.75 76.41 51.78 76.4 51.82 76.4H56.54C56.54 76.4 56.61 76.41 56.64 76.44C56.67 76.47 56.68 76.5 56.68 76.54V77.78C56.68 77.84 56.65 77.9 56.6 77.95L55.12 79.31C55.12 79.31 55.1 79.34 55.1 79.36C55.1 79.38 55.12 79.38 55.15 79.38C55.81 79.51 56.27 79.9 56.55 80.55C56.7 80.9 56.78 81.3 56.78 81.75L56.75 81.76Z" fill="#010101"/>
</g>
</g>
</svg>
